<?xml version="1.0" encoding="UTF-8" standalone="no"?>
<!DOCTYPE svg PUBLIC "-//W3C//DTD SVG 1.1//EN" "http://www.w3.org/Graphics/SVG/1.1/DTD/svg11.dtd">
<!-- Created with Vectornator (http://vectornator.io/) -->
<svg height="100%" stroke-miterlimit="10" style="fill-rule:nonzero;clip-rule:evenodd;stroke-linecap:round;stroke-linejoin:round;" version="1.1" viewBox="0 0 200 100" width="100%" xml:space="preserve" xmlns="http://www.w3.org/2000/svg" xmlns:vectornator="http://vectornator.io" xmlns:xlink="http://www.w3.org/1999/xlink">
<defs/>
<path d="M0 0L200 0L200 100L0 100L0 0Z" fill="#ffffff" fill-rule="nonzero" opacity="1" stroke="none"/>
<clipPath id="ArtboardFrame">
<rect height="100" width="200" x="0" y="0"/>
</clipPath>
<g clip-path="url(#ArtboardFrame)" id="Untitled" vectornator:layerName="Untitled">
<g opacity="1" vectornator:layerName="g">
<path d="M0 50L0 100L300 100L600 100L600 50L600 0L300 0L0 0L0 50ZM297 23.6C309.6 24.8 313.2 25.7 315.9 28.1C319.2 30.8 320.4 31 336.3 31C346.5 31 354.6 31.5 356.4 32.3C358.2 33 360 35.8 360.6 38.5L361.5 43.5L385.5 43.7C398.7 43.8 413.4 43.9 417.9 44L426.3 44L425.4 53.2L424.5 62.5L303.3 62.8C216.3 62.9 180.9 62.7 178.2 61.9C174.9 61 174 57.3 174 46.5C174 30.1 172.2 31 204.3 31C224.1 31 225 30.9 225 28.7C225 21.8 256.2 19.6 297 23.6ZM60 73.5L60 77L78 77C87.9 77 96 77.4 96 78C96 78.6 87 79 75 79C52.8 79 50.7 78.6 49.5 73.7C48.9 70.9 50.4 70 55.8 70C58.5 70 60 71.1 60 73.5ZM154.2 71.3C166.8 74.4 152.7 79 130.5 79C108.3 79 94.2 74.4 106.8 71.3C113.7 69.6 147.3 69.6 154.2 71.3ZM177.6 73.2L178.5 76.5L197.4 76.8C221.1 77.2 219.3 79 195 79C170.7 79 168 78.5 168 73.9C168 68.9 176.1 68.4 177.6 73.2ZM274.5 71.6C289.5 76.6 258.9 81.1 231.3 77.9C220.5 76.6 218.4 72.8 227.4 71.1C236.1 69.4 268.8 69.8 274.5 71.6ZM342 70.7C321.3 71.2 314.4 73 333.3 73C351.9 73 360 73.9 360 76C360 77 357 78 353.4 78.4C342.3 79.4 312 79.1 312 78C312 77.4 320.4 77 331.5 77C342.6 77 351 76.6 351 76C351 75.4 343.2 75 333.3 75C322.5 75 314.4 74.5 312.3 73.7C306.3 71.2 315 70 337.5 70.2C357.3 70.4 357.6 70.4 342 70.7ZM378.9 71.8C378.3 72.6 383.7 73 396 73C410.1 73 414 72.7 414 71.5C414 70.7 416.1 70 418.5 70C421.8 70 423 71.1 423 73.9C423 78.5 418.8 80 414 77C411 75.2 408.3 74.9 395.1 75.2C383.7 75.4 379.5 75.9 379.5 77C379.5 77.8 377.4 78.5 375 78.5C371.7 78.5 370.2 77.2 369.6 74.2C368.7 70.4 369.3 69.9 374.1 70.2C377.1 70.4 379.2 71.2 378.9 71.8ZM484.2 71.3C496.8 74.4 482.7 79 460.5 79C438.3 79 424.2 74.4 436.8 71.3C443.7 69.6 477.3 69.6 484.2 71.3ZM544.2 70.6C549.3 71.3 550.8 74.5 546.3 75.5C544.5 75.8 535.2 76.1 525.3 76.1C512.7 76.2 507 76.6 505.8 77.7C504.9 78.5 502.8 78.8 501 78.5C497.7 77.8 496.8 71.7 500.1 70.7C502.5 69.8 537.9 69.8 544.2 70.6Z" fill="#000000" fill-rule="nonzero" opacity="1" stroke="none" vectornator:layerName="path"/>
<path d="M240.6 24.6C237 25.4 234 27.2 234 28.6C234 31.7 239.4 31.7 243 28.6C244.5 27.2 249.6 25.4 254.1 24.6L262.5 23.1L255 23C250.8 23 244.2 23.7 240.6 24.6Z" fill="#000000" fill-rule="nonzero" opacity="1" stroke="none" vectornator:layerName="path"/>
<path d="M262.5 25C254.4 26.1 248.1 28.7 250.5 30C251.4 30.5 261 31 271.8 31C289.8 31 291 30.9 291 28.7C291 24.4 278.4 22.8 262.5 25Z" fill="#000000" fill-rule="nonzero" opacity="1" stroke="none" vectornator:layerName="path"/>
<path d="M300 28.5C300 30.1 301.8 31 304.5 31C309.3 31 310.2 30.1 307.2 27.6C304.5 25.1 300 25.7 300 28.5Z" fill="#000000" fill-rule="nonzero" opacity="1" stroke="none" vectornator:layerName="path"/>
<path d="M187.5 33C186.6 33.5 188.4 34 191.7 34C195.3 34 198 33.5 198 33C198 32.4 196.2 32 193.8 32C191.4 32 188.4 32.4 187.5 33Z" fill="#000000" fill-rule="nonzero" opacity="1" stroke="none" vectornator:layerName="path"/>
<path d="M211.5 32.9C209.7 33.5 209.1 39.6 210 47.7L211.5 61.5L225 61.5L238.5 61.5L239.4 53.5C240 49.1 241.2 45.2 242.4 44.8C243.9 44.3 266.4 43.9 292.8 43.9C318.9 43.8 342.9 43.6 345.9 43.3C349.8 43 351 41.8 351 38C351 32.7 348.6 32 331.5 32C321.6 32 313.5 34 320.4 34.8C326.1 35.4 324.6 37.7 318 38.3C311.1 38.9 300 38.1 300 37C300 36.6 302.1 35.7 304.5 35C312.3 32.8 306 32 281.1 32C253.8 32 245.7 32.9 253.5 35C255.9 35.7 258 36.6 258 37C258 38.1 244.2 39.1 238.8 38.4C233.1 37.7 232.5 35.3 237.6 34.8C239.4 34.6 240 33.8 238.8 33.2C236.1 31.8 215.4 31.6 211.5 32.9Z" fill="#000000" fill-rule="nonzero" opacity="1" stroke="none" vectornator:layerName="path"/>
<path d="M186.9 35.7C183.9 36 183 39.6 183 48.5C183 60.1 183.3 60.9 189.3 61.5C192.6 61.9 196.2 62 196.8 61.7C197.7 61.4 198.9 55.7 199.8 48.9C201.3 35.6 199.5 33.9 186.9 35.7Z" fill="#000000" fill-rule="nonzero" opacity="1" stroke="none" vectornator:layerName="path"/>
<path d="M251.1 45.7C249.9 46 249 49.6 249 53.6C249 60.4 249.6 61 255.9 61.5C259.5 61.8 297 61.9 339 61.8L415.5 61.5L416.4 53.2L417.3 45L335.1 45C290.1 45 252 45.3 251.1 45.7ZM313.8 47.4C319.2 48.8 319.2 48.9 314.4 49.5C311.4 49.9 309 51 309 52.1C309 55 320.7 57 337.5 57C354.3 57 366 55 366 51.9C366 50.9 364.8 50 363 50C361.5 50 360 49.4 360 48.6C360 46.5 370.5 45.7 378.3 47.1C384.3 48.1 384.6 48.4 380.4 49.4C378 50 375 51.7 374.1 53.1C368.4 60.7 305.7 60.6 300.9 53C300 51.4 297 49.8 294.3 49.5C290.1 48.9 290.1 48.7 295.2 47.4C298.5 46.6 302.7 46 304.5 46C306.3 46 310.5 46.6 313.8 47.4Z" fill="#000000" fill-rule="nonzero" opacity="1" stroke="none" vectornator:layerName="path"/>
<path d="M115.5 72.4C110.4 73.6 110.4 74 113.7 75.4C117 76.7 121.8 77 133.2 76.8C146.1 76.5 148.5 76.2 149.4 74.4C150 72.9 148.2 72.1 143.4 71.6C132 70.6 121.5 70.9 115.5 72.4Z" fill="#000000" fill-rule="nonzero" opacity="1" stroke="none" vectornator:layerName="path"/>
<path d="M236.1 71.7C232.5 72 231 72.9 231.6 74.3C232.5 76.2 234.6 76.5 247.8 76.8C258.3 77 264 76.6 266.7 75.7C274.5 72.5 255.6 70 236.1 71.7Z" fill="#000000" fill-rule="nonzero" opacity="1" stroke="none" vectornator:layerName="path"/>
<path d="M445.5 72.4C436.2 74.7 441.9 77 457.2 77C473.4 77 480 76.2 480 74.4C480 71.3 456 69.8 445.5 72.4Z" fill="#000000" fill-rule="nonzero" opacity="1" stroke="none" vectornator:layerName="path"/>
<path d="M510.9 71.7C508.8 71.9 507 72.8 507 73.6C507 75.3 535.5 75.6 538.8 73.9C542.7 71.7 522.6 70.1 510.9 71.7Z" fill="#000000" fill-rule="nonzero" opacity="1" stroke="none" vectornator:layerName="path"/>
</g>
</g>
</svg>
