<?xml version="1.0" standalone="no"?>
<!DOCTYPE svg PUBLIC "-//W3C//DTD SVG 20010904//EN"
 "http://www.w3.org/TR/2001/REC-SVG-20010904/DTD/svg10.dtd">
<svg version="1.0" xmlns="http://www.w3.org/2000/svg"
 width="200.000000pt" height="100.000000pt" viewBox="0 0 200.000000 100.000000"
 preserveAspectRatio="xMidYMid meet">

<g transform="translate(0.000000,100.000000) scale(0.100000,-0.100000)"
fill="#000000" stroke="none">
<path d="M0 500 l0 -500 1000 0 1000 0 0 500 0 500 -1000 0 -1000 0 0 -500z
m990 264 c42 -12 54 -21 63 -45 11 -27 15 -29 68 -29 34 0 61 -5 67 -13 6 -7
12 -35 14 -62 l3 -50 80 -2 c44 -1 93 -2 108 -3 l28 0 -3 -92 -3 -93 -404 -3
c-290 -1 -408 1 -417 9 -11 9 -14 46 -14 154 0 164 -6 155 101 155 66 0 69 1
69 23 0 69 104 91 240 51z m-790 -499 l0 -35 60 0 c33 0 60 -4 60 -10 0 -6
-30 -10 -70 -10 -74 0 -81 4 -85 53 -2 28 3 37 21 37 9 0 14 -11 14 -35z m314
22 c42 -31 -5 -77 -79 -77 -74 0 -121 46 -79 77 23 17 135 17 158 0z m78 -19
l3 -33 63 -3 c79 -4 73 -22 -8 -22 -81 0 -90 5 -90 51 0 50 27 55 32 7z m323
16 c50 -50 -52 -95 -144 -63 -36 13 -43 51 -13 68 29 17 138 13 157 -5z m225
9 c-69 -5 -92 -23 -29 -23 62 0 89 -9 89 -30 0 -10 -10 -20 -22 -24 -37 -10
-138 -7 -138 4 0 6 28 10 65 10 37 0 65 4 65 10 0 6 -26 10 -59 10 -36 0 -63
5 -70 13 -20 25 9 37 84 35 66 -2 67 -2 15 -5z m123 -11 c-2 -8 16 -12 57 -12
47 0 60 3 60 15 0 8 7 15 15 15 11 0 15 -11 15 -39 0 -46 -14 -61 -30 -31 -10
18 -19 21 -63 18 -38 -2 -52 -7 -52 -18 0 -8 -7 -15 -15 -15 -11 0 -16 13 -18
43 -3 38 -1 43 15 40 10 -2 17 -10 16 -16z m351 5 c42 -31 -5 -77 -79 -77 -74
0 -121 46 -79 77 23 17 135 17 158 0z m200 7 c17 -7 22 -39 7 -49 -6 -3 -37
-6 -70 -6 -42 -1 -61 -5 -65 -16 -3 -8 -10 -11 -16 -8 -11 7 -14 68 -3 78 8 9
126 9 147 1z"/>
<path d="M802 754 c-12 -8 -22 -26 -22 -40 0 -31 18 -31 30 0 5 14 22 32 37
40 l28 15 -25 1 c-14 0 -36 -7 -48 -16z"/>
<path d="M875 750 c-27 -11 -48 -37 -40 -50 3 -5 35 -10 71 -10 60 0 64 1 64
23 0 43 -42 59 -95 37z"/>
<path d="M1000 715 c0 -16 6 -25 15 -25 16 0 19 9 9 34 -9 25 -24 19 -24 -9z"/>
<path d="M625 670 c-3 -5 3 -10 14 -10 12 0 21 5 21 10 0 6 -6 10 -14 10 -8 0
-18 -4 -21 -10z"/>
<path d="M705 671 c-6 -6 -8 -67 -5 -148 l5 -138 45 0 45 0 3 80 c2 44 6 83
10 87 5 5 80 9 168 9 87 1 167 3 177 6 13 3 17 15 17 53 0 53 -8 60 -65 60
-33 0 -60 -20 -37 -28 19 -6 14 -29 -8 -35 -23 -6 -60 2 -60 13 0 4 7 13 15
20 26 22 5 30 -78 30 -91 0 -118 -9 -92 -30 8 -7 15 -16 15 -20 0 -11 -46 -21
-64 -14 -19 7 -21 31 -4 36 6 2 8 10 4 16 -9 14 -78 16 -91 3z"/>
<path d="M623 643 c-10 -3 -13 -39 -13 -128 0 -116 1 -124 21 -130 11 -4 23
-5 25 -2 3 3 7 60 10 128 5 133 -1 150 -43 132z"/>
<path d="M837 543 c-4 -3 -7 -39 -7 -79 0 -68 2 -74 23 -79 12 -3 137 -4 277
-3 l255 3 3 83 3 82 -274 0 c-150 0 -277 -3 -280 -7z m209 -17 c18 -14 18 -15
2 -21 -10 -4 -18 -15 -18 -26 0 -29 39 -49 95 -49 56 0 95 20 95 51 0 10 -4
19 -10 19 -5 0 -10 6 -10 14 0 21 35 29 61 15 20 -10 21 -13 7 -23 -8 -6 -18
-23 -21 -37 -19 -76 -228 -75 -244 1 -3 16 -13 32 -22 35 -14 6 -14 8 3 21 11
8 25 14 31 14 6 0 20 -6 31 -14z"/>
<path d="M385 276 c-17 -12 -17 -16 -6 -30 11 -13 27 -16 65 -14 43 3 51 6 54
24 2 15 -4 23 -20 28 -38 10 -73 7 -93 -8z"/>
<path d="M787 283 c-12 -3 -17 -12 -15 -26 3 -19 10 -22 54 -25 35 -2 54 2 63
11 26 32 -37 57 -102 40z"/>
<path d="M1485 276 c-31 -23 -12 -46 39 -46 54 0 76 8 76 26 0 31 -80 46 -115
20z"/>
<path d="M1703 283 c-7 -2 -13 -11 -13 -19 0 -17 95 -20 106 -3 13 22 -54 38
-93 22z"/>
</g>
</svg>
