<svg version="1.1" preserveAspectRatio="none" xmlns="http://www.w3.org/2000/svg" width="500" height="500" viewBox="0 0 500 500"><rect width="100%" height="100%" fill="#EFFFE0" fill-opacity="1"/><svg viewBox="117.8139 167.2177 386.5945 282.4511" width="333" height="243.2942431928028" x="83.5px" y="128.3529px" xmlns="http://www.w3.org/2000/svg" xmlns:xlink="http://www.w3.org/1999/xlink" preserveAspectRatio="none"><defs></defs><style>.companyName {fill:#313131;fill-opacity:1;}.icon1 {fill:#313131;fill-opacity:1;}.icon2 {fill:#C2EF7E;fill-opacity:1;}.icon3 {fill:#6B7D3B;fill-opacity:1;}.icon3-str {stroke:#6B7D3B;stroke-opacity:1;}</style><g opacity="1" transform="rotate(0 117.8139 369.6688)">
<svg width="386.5945" height="80" x="117.8139" y="369.6688" version="1.1" preserveAspectRatio="none" viewBox="1.8 -33.2 208.76 43.2">
  <g transform="matrix(1 0 0 1 0 0)" class="companyName"><path id="id-D6z1nYkh9" d="M28.24-7.88L27.64 0L1.80 0L1.80-1.52Q3.20-1.56 4.06-1.76Q4.92-1.96 5.40-2.44Q5.88-2.92 6.04-3.80Q6.20-4.68 6.20-6.08L6.20-6.08L6.20-24.72Q6.20-26.12 6.06-26.98Q5.92-27.84 5.50-28.34Q5.08-28.84 4.28-29.02Q3.48-29.20 2.20-29.28L2.20-29.28L2.20-30.80L14.36-30.80L14.36-29.28Q13.08-29.24 12.30-29.04Q11.52-28.84 11.10-28.32Q10.68-27.80 10.54-26.88Q10.40-25.96 10.40-24.44L10.40-24.44L10.40-7.20Q10.40-5.52 10.74-4.46Q11.08-3.40 11.90-2.82Q12.72-2.24 14.08-2.02Q15.44-1.80 17.52-1.80L17.52-1.80Q19.80-1.80 21.36-2.06Q22.92-2.32 23.98-2.98Q25.04-3.64 25.66-4.82Q26.28-6 26.72-7.88L26.72-7.88L28.24-7.88Z M42.08-21.60L42.08-21.60Q44.36-21.60 46.40-20.78Q48.44-19.96 49.98-18.52Q51.52-17.08 52.42-15.10Q53.32-13.12 53.32-10.76L53.32-10.76Q53.32-8.32 52.42-6.28Q51.52-4.24 49.98-2.76Q48.44-1.28 46.40-0.44Q44.36 0.40 42.08 0.40L42.08 0.40Q39.84 0.40 37.82-0.42Q35.80-1.24 34.28-2.72Q32.76-4.20 31.88-6.26Q31-8.32 31-10.76L31-10.76Q31-13.12 31.88-15.12Q32.76-17.12 34.28-18.56Q35.80-20 37.82-20.80Q39.84-21.60 42.08-21.60ZM42.08-19.68L42.08-19.68Q40.60-19.68 39.38-19.04Q38.16-18.40 37.30-17.22Q36.44-16.04 35.98-14.38Q35.52-12.72 35.52-10.72L35.52-10.72Q35.52-8.64 35.98-6.96Q36.44-5.28 37.30-4.10Q38.16-2.92 39.36-2.28Q40.56-1.64 42.08-1.64L42.08-1.64Q43.60-1.64 44.84-2.28Q46.08-2.92 46.96-4.12Q47.84-5.32 48.32-7Q48.80-8.68 48.80-10.72L48.80-10.72Q48.80-12.72 48.32-14.36Q47.84-16 46.96-17.18Q46.08-18.36 44.84-19.02Q43.60-19.68 42.08-19.68Z M63.60-33.20L63.60-6.24Q63.60-4.72 63.72-3.80Q63.84-2.88 64.22-2.36Q64.60-1.84 65.30-1.64Q66-1.44 67.16-1.40L67.16-1.40L67.16 0L56.12 0L56.12-1.40Q57.32-1.44 58.04-1.66Q58.76-1.88 59.18-2.36Q59.60-2.84 59.74-3.70Q59.88-4.56 59.88-5.96L59.88-5.96L59.88-23.20Q59.88-25.36 59.82-26.82Q59.76-28.28 59.64-28.80L59.64-28.80Q59.44-29.72 58.70-30.04Q57.96-30.36 56.04-30.36L56.04-30.36L56.04-31.72L63.60-33.20Z M81.24-21.60L81.24-21.60Q83.52-21.60 85.56-20.78Q87.60-19.96 89.14-18.52Q90.68-17.08 91.58-15.10Q92.48-13.12 92.48-10.76L92.48-10.76Q92.48-8.32 91.58-6.28Q90.68-4.24 89.14-2.76Q87.60-1.28 85.56-0.44Q83.52 0.40 81.24 0.40L81.24 0.40Q79.00 0.40 76.98-0.42Q74.96-1.24 73.44-2.72Q71.92-4.20 71.04-6.26Q70.16-8.32 70.16-10.76L70.16-10.76Q70.16-13.12 71.04-15.12Q71.92-17.12 73.44-18.56Q74.96-20 76.98-20.80Q79.00-21.60 81.24-21.60ZM81.24-19.68L81.24-19.68Q79.76-19.68 78.54-19.04Q77.32-18.40 76.46-17.22Q75.60-16.04 75.14-14.38Q74.68-12.72 74.68-10.72L74.68-10.72Q74.68-8.64 75.14-6.96Q75.60-5.28 76.46-4.10Q77.32-2.92 78.52-2.28Q79.72-1.64 81.24-1.64L81.24-1.64Q82.76-1.64 84.00-2.28Q85.24-2.92 86.12-4.12Q87.00-5.32 87.48-7Q87.96-8.68 87.96-10.72L87.96-10.72Q87.96-12.72 87.48-14.36Q87.00-16 86.12-17.18Q85.24-18.36 84.00-19.02Q82.76-19.68 81.24-19.68Z M108.80-0.44L108.20-9.40L109.68-9.40Q109.96-7.60 110.74-6.16Q111.52-4.72 112.70-3.72Q113.88-2.72 115.42-2.18Q116.96-1.64 118.76-1.64L118.76-1.64Q121.72-1.64 123.44-3.04Q125.16-4.44 125.16-6.84L125.16-6.84Q125.16-7.84 124.82-8.68Q124.48-9.52 123.68-10.30Q122.88-11.08 121.54-11.84Q120.20-12.60 118.16-13.48L118.16-13.48Q115.68-14.56 114.00-15.56Q112.32-16.56 111.32-17.64Q110.32-18.72 109.90-19.94Q109.48-21.16 109.48-22.72L109.48-22.72Q109.48-24.56 110.14-26.12Q110.80-27.68 112.00-28.82Q113.20-29.96 114.84-30.58Q116.48-31.20 118.44-31.20L118.44-31.20Q120.20-31.20 121.72-30.64Q123.24-30.08 124.80-28.84L124.80-28.84L125.84-30.64L126.76-30.64L127.20-22.68L125.72-22.68Q124.76-25.96 122.94-27.56Q121.12-29.16 118.56-29.16L118.56-29.16Q116.12-29.16 114.68-27.96Q113.24-26.76 113.24-24.72L113.24-24.72Q113.24-23.76 113.56-22.98Q113.88-22.20 114.60-21.50Q115.32-20.80 116.48-20.10Q117.64-19.40 119.36-18.64L119.36-18.64Q122.32-17.32 124.28-16.18Q126.24-15.04 127.40-13.90Q128.56-12.76 129.04-11.50Q129.52-10.24 129.52-8.68L129.52-8.68Q129.52-6.68 128.72-5Q127.92-3.32 126.48-2.12Q125.04-0.92 123.04-0.26Q121.04 0.40 118.64 0.40L118.64 0.40Q116.36 0.40 114.54-0.24Q112.72-0.88 110.84-2.40L110.84-2.40L109.72-0.44L108.80-0.44Z M140-11.48L140-6.36Q140-4.72 140.08-3.76Q140.16-2.80 140.50-2.30Q140.84-1.80 141.48-1.64Q142.12-1.48 143.28-1.40L143.28-1.40L143.28 0L132.64 0L132.64-1.40Q133.80-1.48 134.48-1.64Q135.16-1.80 135.52-2.28Q135.88-2.76 135.98-3.66Q136.08-4.56 136.08-6.08L136.08-6.08L136.08-22.84Q136.08-25.20 136.02-26.60Q135.96-28 135.80-28.72L135.80-28.72Q135.72-29.20 135.54-29.50Q135.36-29.80 135-29.98Q134.64-30.16 134.04-30.24Q133.44-30.32 132.56-30.32L132.56-30.32L132.56-31.68L139.92-33.20L139.92-17.96L140.08-17.96Q140.68-18.76 141.58-19.42Q142.48-20.08 143.52-20.56Q144.56-21.04 145.70-21.32Q146.84-21.60 147.92-21.60L147.92-21.60Q149.76-21.60 151.30-20.96Q152.84-20.32 153.68-19.24L153.68-19.24Q154.36-18.32 154.68-16.82Q155-15.32 155-12.76L155-12.76L155-6.36Q155-4.72 155.08-3.78Q155.16-2.84 155.50-2.32Q155.84-1.80 156.48-1.64Q157.12-1.48 158.28-1.40L158.28-1.40L158.28 0L147.68 0L147.68-1.40Q148.80-1.44 149.48-1.62Q150.16-1.80 150.50-2.28Q150.84-2.76 150.94-3.66Q151.04-4.56 151.04-6.08L151.04-6.08L151.04-11.12Q151.04-15.60 150-17.50Q148.96-19.40 146.52-19.40L146.52-19.40Q144.64-19.40 143.10-18.44Q141.56-17.48 140.68-15.80L140.68-15.80Q140.48-15.36 140.34-14.98Q140.20-14.60 140.12-14.12Q140.04-13.64 140.02-13.02Q140-12.40 140-11.48L140-11.48Z M172.20-21.60L172.20-21.60Q174.48-21.60 176.52-20.78Q178.56-19.96 180.10-18.52Q181.64-17.08 182.54-15.10Q183.44-13.12 183.44-10.76L183.44-10.76Q183.44-8.32 182.54-6.28Q181.64-4.24 180.10-2.76Q178.56-1.28 176.52-0.44Q174.48 0.40 172.20 0.40L172.20 0.40Q169.96 0.40 167.94-0.42Q165.92-1.24 164.40-2.72Q162.88-4.20 162.00-6.26Q161.12-8.32 161.12-10.76L161.12-10.76Q161.12-13.12 162.00-15.12Q162.88-17.12 164.40-18.56Q165.92-20 167.94-20.80Q169.96-21.60 172.20-21.60ZM172.20-19.68L172.20-19.68Q170.72-19.68 169.50-19.04Q168.28-18.40 167.42-17.22Q166.56-16.04 166.10-14.38Q165.64-12.72 165.64-10.72L165.64-10.72Q165.64-8.64 166.10-6.96Q166.56-5.28 167.42-4.10Q168.28-2.92 169.48-2.28Q170.68-1.64 172.20-1.64L172.20-1.64Q173.72-1.64 174.96-2.28Q176.20-2.92 177.08-4.12Q177.96-5.32 178.44-7Q178.92-8.68 178.92-10.72L178.92-10.72Q178.92-12.72 178.44-14.36Q177.96-16 177.08-17.18Q176.20-18.36 174.96-19.02Q173.72-19.68 172.20-19.68Z M193.76-21.44L193.76-18.32L193.92-18.32Q195.20-19.84 196.68-20.72Q198.16-21.60 200.12-21.60L200.12-21.60Q202.40-21.60 204.30-20.78Q206.20-19.96 207.60-18.48Q209-17 209.78-14.98Q210.56-12.96 210.56-10.56L210.56-10.56Q210.56-8.12 209.76-6.10Q208.96-4.08 207.56-2.64Q206.16-1.20 204.24-0.40Q202.32 0.40 200.08 0.40L200.08 0.40Q198.24 0.40 196.74-0.22Q195.24-0.84 193.92-2.24L193.92-2.24L193.92 3.60Q193.92 5.20 194.08 6.16Q194.24 7.12 194.72 7.64Q195.20 8.16 196.10 8.36Q197 8.56 198.48 8.60L198.48 8.60L198.48 10L186.16 10L186.16 8.60Q187.36 8.56 188.10 8.36Q188.84 8.16 189.26 7.64Q189.68 7.12 189.84 6.22Q190 5.32 190 3.88L190 3.88L190-11.08Q190-13.40 189.94-14.88Q189.88-16.36 189.72-16.92L189.72-16.92Q189.52-17.88 188.80-18.22Q188.08-18.56 186.08-18.56L186.08-18.56L186.08-19.92L193.76-21.44ZM194.96-17.16L194.96-17.16Q194.44-16.36 194.18-15.26Q193.92-14.16 193.92-12.40L193.92-12.40L193.92-9.28Q193.92-8.20 193.98-7.42Q194.04-6.64 194.16-6.08Q194.28-5.52 194.48-5.08Q194.68-4.64 195-4.24L195-4.24Q195.92-2.96 197.20-2.26Q198.48-1.56 199.88-1.56L199.88-1.56Q202.64-1.56 204.34-3.88Q206.04-6.20 206.04-10.40L206.04-10.40Q206.04-12.48 205.58-14.18Q205.12-15.88 204.28-17.10Q203.44-18.32 202.26-19Q201.08-19.68 199.64-19.68L199.64-19.68Q198.20-19.68 196.98-19.02Q195.76-18.36 194.96-17.16Z"/></g>
</svg>
</g><g opacity="1" transform="rotate(0 233.7923 167.2177)">
<svg width="154.6378" height="162.4511" x="233.7923" y="167.2177" version="1.1" preserveAspectRatio="none" viewBox="9.180000305175781 7 80.75 84.83000183105469">
  <g transform="matrix(1 0 0 1 0 0)" class="icon1"><title>Artboard 59</title><path d="M89.93,80.33V33.92a1.5,1.5,0,0,0-1.5-1.5H71v-14a1.5,1.5,0,0,0-.44-1.06l-10-10a1.5,1.5,0,0,0-.32-.24l-.08,0A1.48,1.48,0,0,0,59.87,7h0l-.28,0h-20l-.27,0h0a1.48,1.48,0,0,0-.36.13l-.08,0a1.51,1.51,0,0,0-.32.24l-10,10a1.5,1.5,0,0,0-.44,1.06v14H10.68a1.5,1.5,0,0,0-1.5,1.5V80.33a11.51,11.51,0,0,0,11.5,11.5H78.43A11.51,11.51,0,0,0,89.93,80.33ZM61.07,12.12l7,7V32.42h-7ZM41,10h17v7H41Zm0,10h17V32.42H41Zm-10-.88,7-7v20.3h-7ZM12.18,80.33V35.42H86.93V80.33a8.51,8.51,0,0,1-8.5,8.5H20.68A8.51,8.51,0,0,1,12.18,80.33Z"></path><path d="M20.68,45.92A1.5,1.5,0,0,0,22,45.2a1.5,1.5,0,0,0-.78-2.78h-.5a1.5,1.5,0,0,0-1.5,1.5v.5A1.5,1.5,0,0,0,20.68,45.92Z"></path><path d="M40,43.92a1.5,1.5,0,0,0-1.5-1.5h-1a1.5,1.5,0,0,0,0,3h1A1.5,1.5,0,0,0,40,43.92Z"></path><path d="M28.45,43.92a1.5,1.5,0,0,0-1.5-1.5H26a1.5,1.5,0,1,0,0,3h1A1.5,1.5,0,0,0,28.45,43.92Z"></path><path d="M34.22,43.92a1.5,1.5,0,0,0-1.5-1.5h-1a1.5,1.5,0,0,0,0,3h1A1.5,1.5,0,0,0,34.22,43.92Z"></path><path d="M63.08,43.92a1.5,1.5,0,0,0-1.5-1.5h-1a1.5,1.5,0,0,0,0,3h1A1.5,1.5,0,0,0,63.08,43.92Z"></path><path d="M73.12,42.42h-1a1.5,1.5,0,0,0,0,3h1a1.5,1.5,0,0,0,0-3Z"></path><path d="M57.3,43.92a1.5,1.5,0,0,0-1.5-1.5h-1a1.5,1.5,0,0,0,0,3h1A1.5,1.5,0,0,0,57.3,43.92Z"></path><path d="M67.35,42.42h-1a1.5,1.5,0,0,0,0,3h1a1.5,1.5,0,0,0,0-3Z"></path><path d="M45.76,43.92a1.5,1.5,0,0,0-1.5-1.5h-1a1.5,1.5,0,0,0,0,3h1A1.5,1.5,0,0,0,45.76,43.92Z"></path><path d="M51.53,43.92a1.5,1.5,0,0,0-1.5-1.5h-1a1.5,1.5,0,0,0,0,3h1A1.5,1.5,0,0,0,51.53,43.92Z"></path><path d="M77.15,45.2a1.5,1.5,0,0,0,2.78-.78v-.5a1.5,1.5,0,0,0-1.5-1.5h-.5a1.5,1.5,0,0,0-.78,2.78Z"></path><path d="M53.07,78.83h-1a1.5,1.5,0,0,0,0,3h1a1.5,1.5,0,0,0,0-3Z"></path><path d="M47.06,78.83h-1a1.5,1.5,0,0,0,0,3h1a1.5,1.5,0,1,0,0-3Z"></path><path d="M59.09,78.83h-1a1.5,1.5,0,0,0,0,3h1a1.5,1.5,0,0,0,0-3Z"></path><path d="M23.9,78.35a3.66,3.66,0,0,1-.57-.42,1.5,1.5,0,1,0-2,2.23,6.65,6.65,0,0,0,1,.77,1.5,1.5,0,1,0,1.53-2.58Z"></path><path d="M29,78.83H28a1.5,1.5,0,0,0,0,3h1a1.5,1.5,0,1,0,0-3Z"></path><path d="M35,78.83H34a1.5,1.5,0,1,0,0,3h1a1.5,1.5,0,0,0,0-3Z"></path><path d="M41,78.83H40a1.5,1.5,0,0,0,0,3h1a1.5,1.5,0,0,0,0-3Z"></path><path d="M65.1,78.83h-1a1.5,1.5,0,0,0,0,3h1a1.5,1.5,0,0,0,0-3Z"></path><path d="M78.43,72a1.5,1.5,0,0,0-1.5,1.5v1a1.5,1.5,0,0,0,3,0v-1A1.5,1.5,0,0,0,78.43,72Z"></path><path d="M75.79,77.92a3.48,3.48,0,0,1-.56.42,1.5,1.5,0,0,0,1.54,2.57,6.56,6.56,0,0,0,1-.78,1.5,1.5,0,1,0-2-2.22Z"></path><path d="M71.11,78.83h-1a1.5,1.5,0,0,0,0,3h1a1.5,1.5,0,0,0,0-3Z"></path><path d="M20.68,58a1.5,1.5,0,0,0,1.5-1.5v-1a1.5,1.5,0,0,0-3,0v1A1.5,1.5,0,0,0,20.68,58Z"></path><path d="M78.43,53.94a1.5,1.5,0,0,0-1.5,1.5v1a1.5,1.5,0,0,0,3,0v-1A1.5,1.5,0,0,0,78.43,53.94Z"></path><path d="M78.43,47.93a1.5,1.5,0,0,0-1.5,1.5v1a1.5,1.5,0,0,0,3,0v-1A1.5,1.5,0,0,0,78.43,47.93Z"></path><path d="M78.43,60a1.5,1.5,0,0,0-1.5,1.5v1a1.5,1.5,0,0,0,3,0v-1A1.5,1.5,0,0,0,78.43,60Z"></path><path d="M22.18,74.51v-1a1.5,1.5,0,0,0-3,0v1a1.5,1.5,0,0,0,3,0Z"></path><path d="M78.43,66a1.5,1.5,0,0,0-1.5,1.5v1a1.5,1.5,0,0,0,3,0v-1A1.5,1.5,0,0,0,78.43,66Z"></path><path d="M20.68,52a1.5,1.5,0,0,0,1.5-1.5v-1a1.5,1.5,0,0,0-3,0v1A1.5,1.5,0,0,0,20.68,52Z"></path><path d="M20.68,64a1.5,1.5,0,0,0,1.5-1.5v-1a1.5,1.5,0,0,0-3,0v1A1.5,1.5,0,0,0,20.68,64Z"></path><path d="M20.68,70a1.5,1.5,0,0,0,1.5-1.5v-1a1.5,1.5,0,0,0-3,0v1A1.5,1.5,0,0,0,20.68,70Z"></path></g>
</svg>
</g></svg></svg>