<svg version="1.1" preserveAspectRatio="none" xmlns="http://www.w3.org/2000/svg" width="500" height="500" viewBox="0 0 500 500"><rect width="100%" height="100%" fill="#FFFFFF" fill-opacity="1"/><svg viewBox="-23.6114 219.2928 550.9582 120" width="333" height="72.52818816382077" x="83.5px" y="213.7359px" xmlns="http://www.w3.org/2000/svg" xmlns:xlink="http://www.w3.org/1999/xlink" preserveAspectRatio="none"><defs></defs><style>.background {fill:#FFFFFF;fill-opacity:1;}.companyName {fill:#0C0C0C;fill-opacity:1;}.icon3 {fill:#6F5CF3;fill-opacity:1;}.icon3-str {stroke:#6F5CF3;stroke-opacity:1;}.shape {fill:#F55649;fill-opacity:1;}.text-str {stroke:#0C0C0C;stroke-opacity:1;}</style><g opacity="1" transform="rotate(0 99.3885 219.2928)">
<svg width="427.9583" height="120" x="99.3885" y="219.2928" version="1.1" preserveAspectRatio="none" viewBox="0 0 427.9583 120">
  <defs><rect x="0" y="0" width="427.9583" height="120" rx="0px" ry="0px" id="id-B7crM0kCi1683451853286"></rect></defs><use class="companyName text-str" style="stroke-width:0;" xlink:href="#id-B7crM0kCi1683451853286"></use>
</svg>
</g><g opacity="1" transform="rotate(0 129.3885 249.2928)">
<svg width="367.9583" height="60" x="129.3885" y="249.2928" version="1.1" preserveAspectRatio="none" viewBox="4.3359 -32.4023 256.4454 41.816399999999994">
  <g transform="matrix(1 0 0 1 0 0)" class="background"><path id="id-D6z1nYkh9" d="M4.34 0L4.34-30.53L10.53-30.53L10.53-5.43L28.28-5.43L28.28 0L4.34 0Z M32.17-11.52L32.17-11.52Q32.17-14.00 33.17-16.17Q34.18-18.34 36.04-19.96Q37.91-21.58 40.56-22.52Q43.20-23.46 46.50-23.46L46.50-23.46Q49.80-23.46 52.45-22.52Q55.10-21.58 56.96-19.96Q58.83-18.34 59.83-16.17Q60.84-14.00 60.84-11.52L60.84-11.52Q60.84-9.04 59.83-6.88Q58.83-4.71 56.96-3.09Q55.10-1.46 52.45-0.53Q49.80 0.41 46.50 0.41L46.50 0.41Q43.20 0.41 40.56-0.53Q37.91-1.46 36.04-3.09Q34.18-4.71 33.17-6.88Q32.17-9.04 32.17-11.52ZM38.24-11.52L38.24-11.52Q38.24-10.14 38.80-8.90Q39.36-7.66 40.42-6.71Q41.48-5.76 43.02-5.21Q44.55-4.65 46.50-4.65L46.50-4.65Q48.46-4.65 49.99-5.21Q51.52-5.76 52.59-6.71Q53.65-7.66 54.21-8.90Q54.77-10.14 54.77-11.52L54.77-11.52Q54.77-12.91 54.21-14.16Q53.65-15.41 52.59-16.36Q51.52-17.30 49.99-17.86Q48.46-18.42 46.50-18.42L46.50-18.42Q44.55-18.42 43.02-17.86Q41.48-17.30 40.42-16.36Q39.36-15.41 38.80-14.16Q38.24-12.91 38.24-11.52Z M66.84 0L66.84-32.40L72.62-32.40L72.62 0L66.84 0Z M78.63-11.52L78.63-11.52Q78.63-14.00 79.64-16.17Q80.64-18.34 82.51-19.96Q84.38-21.58 87.02-22.52Q89.67-23.46 92.97-23.46L92.97-23.46Q96.27-23.46 98.92-22.52Q101.56-21.58 103.43-19.96Q105.29-18.34 106.30-16.17Q107.30-14.00 107.30-11.52L107.30-11.52Q107.30-9.04 106.30-6.88Q105.29-4.71 103.43-3.09Q101.56-1.46 98.92-0.53Q96.27 0.41 92.97 0.41L92.97 0.41Q89.67 0.41 87.02-0.53Q84.38-1.46 82.51-3.09Q80.64-4.71 79.64-6.88Q78.63-9.04 78.63-11.52ZM84.71-11.52L84.71-11.52Q84.71-10.14 85.26-8.90Q85.82-7.66 86.88-6.71Q87.95-5.76 89.48-5.21Q91.02-4.65 92.97-4.65L92.97-4.65Q94.92-4.65 96.46-5.21Q97.99-5.76 99.05-6.71Q100.12-7.66 100.67-8.90Q101.23-10.14 101.23-11.52L101.23-11.52Q101.23-12.91 100.67-14.16Q100.12-15.41 99.05-16.36Q97.99-17.30 96.46-17.86Q94.92-18.42 92.97-18.42L92.97-18.42Q91.02-18.42 89.48-17.86Q87.95-17.30 86.88-16.36Q85.82-15.41 85.26-14.16Q84.71-12.91 84.71-11.52Z M125.27-4.06L128.57-9.08Q130.23-8.14 131.94-7.39Q133.65-6.64 135.49-6.12Q137.32-5.61 139.35-5.33Q141.37-5.06 143.65-5.06L143.65-5.06Q146.41-5.06 148.34-5.42Q150.27-5.78 151.49-6.42Q152.71-7.05 153.27-7.93Q153.83-8.81 153.83-9.84L153.83-9.84Q153.83-11.50 152.44-12.47Q151.05-13.44 148.16-13.44L148.16-13.44Q146.89-13.44 145.49-13.27Q144.08-13.11 142.65-12.91Q141.21-12.71 139.81-12.55Q138.42-12.38 137.19-12.38L137.19-12.38Q135.14-12.38 133.25-12.91Q131.37-13.44 129.91-14.49Q128.46-15.55 127.60-17.13Q126.74-18.71 126.74-20.82L126.74-20.82Q126.74-22.07 127.08-23.30Q127.42-24.53 128.17-25.65Q128.93-26.78 130.12-27.74Q131.31-28.71 133.00-29.41Q134.69-30.12 136.90-30.52Q139.12-30.92 141.95-30.92L141.95-30.92Q144.00-30.92 146.07-30.69Q148.14-30.47 150.11-30.06Q152.07-29.65 153.89-29.07Q155.70-28.50 157.27-27.79L157.27-27.79L154.55-22.79Q153.26-23.36 151.78-23.84Q150.29-24.32 148.67-24.67Q147.05-25.02 145.32-25.22Q143.59-25.43 141.80-25.43L141.80-25.43Q139.24-25.43 137.59-25.06Q135.94-24.69 134.96-24.11Q133.98-23.54 133.60-22.82Q133.22-22.11 133.22-21.41L133.22-21.41Q133.22-20.04 134.45-19.17Q135.68-18.30 138.20-18.30L138.20-18.30Q139.22-18.30 140.54-18.45Q141.86-18.59 143.31-18.77Q144.77-18.95 146.28-19.09Q147.79-19.24 149.22-19.24L149.22-19.24Q151.91-19.24 153.99-18.63Q156.07-18.03 157.48-16.90Q158.89-15.78 159.61-14.19Q160.33-12.60 160.33-10.63L160.33-10.63Q160.33-7.99 159.11-5.93Q157.89-3.87 155.63-2.45Q153.38-1.04 150.20-0.30Q147.01 0.43 143.11 0.43L143.11 0.43Q140.53 0.43 138.07 0.11Q135.61-0.21 133.35-0.81Q131.09-1.41 129.05-2.24Q127.01-3.07 125.27-4.06L125.27-4.06Z M166.43 0L166.43-32.38L172.21-32.38L172.21-21.29Q174.02-22.29 176.26-22.87Q178.50-23.46 180.96-23.46L180.96-23.46Q183.81-23.46 186.08-22.62Q188.36-21.78 189.94-20.21Q191.52-18.63 192.37-16.39Q193.22-14.14 193.22-11.33L193.22-11.33L193.22 0L187.46 0L187.46-11.09Q187.46-12.73 186.93-14.09Q186.41-15.45 185.39-16.43Q184.38-17.40 182.92-17.94Q181.46-18.48 179.63-18.48L179.63-18.48Q177.42-18.48 175.53-17.77Q173.63-17.07 172.21-16.00L172.21-16.00L172.21 0L166.43 0Z M198.30-11.52L198.30-11.52Q198.30-14.00 199.31-16.17Q200.31-18.34 202.18-19.96Q204.04-21.58 206.69-22.52Q209.34-23.46 212.64-23.46L212.64-23.46Q215.94-23.46 218.58-22.52Q221.23-21.58 223.10-19.96Q224.96-18.34 225.97-16.17Q226.97-14.00 226.97-11.52L226.97-11.52Q226.97-9.04 225.97-6.88Q224.96-4.71 223.10-3.09Q221.23-1.46 218.58-0.53Q215.94 0.41 212.64 0.41L212.64 0.41Q209.34 0.41 206.69-0.53Q204.04-1.46 202.18-3.09Q200.31-4.71 199.31-6.88Q198.30-9.04 198.30-11.52ZM204.38-11.52L204.38-11.52Q204.38-10.14 204.93-8.90Q205.49-7.66 206.55-6.71Q207.62-5.76 209.15-5.21Q210.68-4.65 212.64-4.65L212.64-4.65Q214.59-4.65 216.12-5.21Q217.66-5.76 218.72-6.71Q219.79-7.66 220.34-8.90Q220.90-10.14 220.90-11.52L220.90-11.52Q220.90-12.91 220.34-14.16Q219.79-15.41 218.72-16.36Q217.66-17.30 216.12-17.86Q214.59-18.42 212.64-18.42L212.64-18.42Q210.68-18.42 209.15-17.86Q207.62-17.30 206.55-16.36Q205.49-15.41 204.93-14.16Q204.38-12.91 204.38-11.52Z M238.44-1.66L238.44 9.41L232.66 9.41L232.66-23.05L238.44-23.05L238.44-20.88Q239.20-21.41 240.23-21.88Q241.27-22.34 242.46-22.70Q243.65-23.05 244.92-23.25Q246.19-23.46 247.46-23.46L247.46-23.46Q250.39-23.46 252.84-22.60Q255.29-21.74 257.05-20.18Q258.81-18.61 259.79-16.44Q260.78-14.26 260.78-11.62L260.78-11.62Q260.78-8.87 259.75-6.65Q258.71-4.43 256.88-2.86Q255.06-1.29 252.55-0.44Q250.04 0.41 247.11 0.41L247.11 0.41Q245.86 0.41 244.64 0.25Q243.42 0.10 242.29-0.18Q241.17-0.45 240.19-0.83Q239.20-1.21 238.44-1.66L238.44-1.66ZM238.44-15.23L238.44-7.25Q239.32-6.54 240.29-6.05Q241.27-5.57 242.29-5.25Q243.30-4.94 244.34-4.79Q245.37-4.65 246.35-4.65L246.35-4.65Q248.34-4.65 249.89-5.19Q251.45-5.72 252.51-6.66Q253.57-7.60 254.14-8.87Q254.71-10.14 254.71-11.62L254.71-11.62Q254.71-13.01 254.15-14.24Q253.59-15.47 252.55-16.40Q251.50-17.32 250.03-17.86Q248.55-18.40 246.72-18.40L246.72-18.40Q245.55-18.40 244.38-18.17Q243.20-17.95 242.12-17.54Q241.04-17.13 240.09-16.54Q239.14-15.96 238.44-15.23L238.44-15.23Z"/></g>
</svg>
</g><g opacity="1" transform="rotate(0 -23.6114 219.2928)">
<svg width="119.9999" height="120" x="-23.6114" y="219.2928" version="1.1" preserveAspectRatio="none" viewBox="0 0 119.9999 120">
  <defs><rect x="0" y="0" width="119.9999" height="120" rx="0px" ry="0px" id="id-tBXipXk0b1683451853286"></rect></defs><use class="companyName text-str" style="stroke-width:0;" xlink:href="#id-tBXipXk0b1683451853286"></use>
</svg>
</g><g opacity="1" transform="rotate(0 -3.6114 239.2929)">
<svg width="79.9999" height="79.9999" x="-3.6114" y="239.2929" version="1.1" preserveAspectRatio="none" viewBox="5.080078125 5 90 90">
  <g transform="matrix(1 0 0 1 0 0)" class="icon3"><g transform="translate(0,-952.36216)"><path style="color:#000000;font-style:normal;font-variant:normal;font-weight:normal;font-stretch:normal;font-size:medium;line-height:normal;font-variant-ligatures:normal;font-variant-position:normal;font-variant-caps:normal;font-variant-numeric:normal;font-variant-alternates:normal;font-feature-settings:normal;text-indent:0;text-align:start;text-decoration:none;text-decoration-line:none;text-decoration-style:solid;text-decoration-color:#000000;letter-spacing:normal;word-spacing:normal;text-transform:none;writing-mode:lr-tb;direction:ltr;text-orientation:mixed;dominant-baseline:auto;baseline-shift:baseline;text-anchor:start;white-space:normal;shape-padding:0;clip-rule:nonzero;display:inline;overflow:visible;visibility:visible;opacity:1;isolation:auto;mix-blend-mode:normal;color-interpolation:sRGB;color-interpolation-filters:linearRGB;solid-color:#000000;solid-opacity:1;vector-effect:none;fill-rule:nonzero;stroke-width:3;stroke-linecap:round;stroke-linejoin:round;stroke-miterlimit:4;stroke-dasharray:none;stroke-dashoffset:0;color-rendering:auto;image-rendering:auto;shape-rendering:auto;text-rendering:auto;enable-background:accumulate" d="M 16.580078 5 C 10.235024 5 5.0800781 10.15494 5.0800781 16.5 L 5.0800781 83.5 C 5.0800781 89.8451 10.235024 95 16.580078 95 L 83.580078 95 C 89.925132 95 95.080078 89.8451 95.080078 83.5 L 95.080078 16.5 C 95.080078 10.15494 89.925132 5 83.580078 5 L 16.580078 5 z M 50 24.5 C 51.798409 24.5 53.596902 25.079754 55.148438 26.240234 C 57.896467 28.295644 59.576017 31.7241 59.925781 35.5 L 76.5 35.5 A 1.50015 1.50015 0 0 1 78 37 L 78 74 A 1.50015 1.50015 0 0 1 76.5 75.5 L 23.5 75.5 A 1.50015 1.50015 0 0 1 22 74 L 22 37 A 1.50015 1.50015 0 0 1 23.5 35.5 L 40.074219 35.5 C 40.423983 31.7241 42.103533 28.295644 44.851562 26.240234 C 46.403098 25.079754 48.201591 24.5 50 24.5 z M 50 27.431641 C 48.863383 27.431641 47.726765 27.836038 46.648438 28.642578 C 44.798613 30.026168 43.445433 32.57935 43.095703 35.5 L 56.904297 35.5 C 56.554567 32.57935 55.201389 30.026168 53.351562 28.642578 C 52.273235 27.836038 51.136617 27.431641 50 27.431641 z M 25 38.5 L 25 72.5 L 75 72.5 L 75 38.5 L 25 38.5 z M 41.5 41.498047 A 1.5 1.5 0 0 1 43 42.998047 A 1.5 1.5 0 0 1 41.5 44.498047 A 1.5 1.5 0 0 1 40 42.998047 A 1.5 1.5 0 0 1 41.5 41.498047 z M 58.5 41.498047 A 1.5 1.5 0 0 1 60 42.998047 A 1.5 1.5 0 0 1 58.5 44.498047 A 1.5 1.5 0 0 1 57 42.998047 A 1.5 1.5 0 0 1 58.5 41.498047 z " transform="translate(0,952.36216)"></path></g></g>
</svg>
</g></svg></svg>