<svg version="1.1" preserveAspectRatio="none" xmlns="http://www.w3.org/2000/svg" width="500" height="500" viewBox="0 0 500 500"><rect width="100%" height="100%" fill="#FFFFFF" fill-opacity="1"/><svg viewBox="120.8952 168.8166 301.8642 120" width="333" height="132.37740679418096" x="83.5px" y="183.8113px" xmlns="http://www.w3.org/2000/svg" xmlns:xlink="http://www.w3.org/1999/xlink" preserveAspectRatio="none"><defs></defs><style>.companyName {fill:#182145;fill-opacity:1;}.icon1 {fill:#182145;fill-opacity:1;}.icon2 {fill:#E35B34;fill-opacity:1;}.icon3 {fill:#E3D454;fill-opacity:1;}.icon3-str {stroke:#E3D454;stroke-opacity:1;}</style><g opacity="1" transform="rotate(0 120.8952 168.8166)">
<svg width="66.3693" height="120" x="120.8952" y="168.8166" version="1.1" preserveAspectRatio="none" viewBox="50.500091552734375 10.500921249389648 99.00091552734375 179.00013732910156">
  <g transform="matrix(1 0 0 1 0 0)" ><g><path d="M120.581 76.967c-.273-3.47-.234-8.55 1.959-10.756 3.489-3.509 7.342-13.345 3.465-25.433s1.502-24.287 1.502-24.287l-10.177-4.233s-6.893 14.537-16.447 14.652l-5.087.11c-9.794-.265-16.276-14.801-16.276-14.801l-10.177 4.262s5.38 12.074 1.502 24.163c-3.877 12.088-.024 22.076 3.465 25.586 2.583 2.598 2.179 9.168 1.794 12.409-6.089 10.192-22.025 42.264-23.881 101.276l15.168 7.867 16.772-7.976 15.621 7.816 15.175-8.345 17.212 8.305 15.635-7.899c-.001 0 .102-51.781-27.225-102.716z" data-color="1" class="icon1"></path><path d="M147.104 178.607c-.023-.982-.08-2.634-.218-4.92l-.1-1.664-14.49 8.413a.693.693 0 0 1-.668.01l-15.915-8.649-15.555 8.646a.697.697 0 0 1-.665-.003l-15.242-8.643-16.226 8.652a.693.693 0 0 1-.667-.015l-14.114-8.365-.085 1.702a332.608 332.608 0 0 0-.217 5.079l-.023.653 14.485 7.512 16.467-7.831a.672.672 0 0 1 .596.006l15.302 7.656 14.863-8.173a.682.682 0 0 1 .623-.016l16.908 8.159 14.956-7.555-.015-.654z" data-color="2" class="icon2"></path><path d="M100.729 37.373l.941-.891a1.38 1.38 0 0 0 .058-1.943 1.361 1.361 0 0 0-1.932-.058l-.941.891-.886-.947a1.36 1.36 0 0 0-1.932-.058 1.38 1.38 0 0 0-.058 1.943l.885.946-.941.891a1.38 1.38 0 0 0-.058 1.943 1.359 1.359 0 0 0 1.932.058l.941-.891.886.947a1.359 1.359 0 0 0 1.932.058 1.38 1.38 0 0 0 .058-1.943l-.885-.946z" data-color="3" class="icon3"></path><path d="M122.244 76.474c-.314-4.488.225-7.775 1.49-9.048 3.829-3.852 8.023-14.268 3.883-27.176-3.622-11.293 1.388-22.948 1.438-23.063a1.717 1.717 0 0 0-.909-2.285l-10.178-4.233a1.706 1.706 0 0 0-2.195.848c-.065.136-6.554 13.573-14.941 13.675l-5.043.108c-8.577-.271-14.664-13.65-14.724-13.785a1.703 1.703 0 0 0-2.215-.882l-10.178 4.262c-.425.178-.76.522-.93.952-.17.43-.16.912.027 1.335.051.115 5.057 11.646 1.436 22.935-4.168 12.993.039 23.462 3.883 27.328 1.405 1.414 1.915 5.469 1.347 10.63-6.377 10.785-20.461 40.14-23.516 92.597-.002.015-.001.03-.002.045a341.566 341.566 0 0 0-.416 9.143 1.72 1.72 0 0 0 .925 1.582l15.168 7.867a1.69 1.69 0 0 0 1.513.026l16.023-7.619 14.879 7.445a1.7 1.7 0 0 0 1.581-.031l14.406-7.922 16.422 7.924c.477.23 1.033.225 1.506-.013l15.635-7.899c.576-.291.94-.884.942-1.533 0-.522-.212-52.584-27.257-103.213zm-44.689 3.05c.125-.208.204-.441.232-.682.557-4.7.614-10.914-2.283-13.828-5.89-5.925-4.995-17.769-3.048-23.843 3.223-10.049.439-19.927-.927-23.751l7.155-2.996c2.048 3.921 8.198 14.074 17.051 14.313h.083l5.071-.109c8.686-.105 15.096-10.307 17.218-14.182l7.187 2.989c-1.362 3.846-4.156 13.81-.93 23.869 3.644 11.361.065 20.561-3.047 23.691-2.096 2.108-2.922 6.181-2.454 12.107.019.238.087.47.2.681 19.854 37.005 25.119 74.833 26.515 92.155l-13.667 7.934-14.627-7.949a1.715 1.715 0 0 0-.368-.391v-11.69c0-.949-.765-1.719-1.709-1.719s-1.709.769-1.709 1.719v12.427l-13.677 7.602-13.663-7.747v-12.282c0-.949-.765-1.719-1.709-1.719s-1.709.769-1.709 1.719v11.965c-.025.031-.046.067-.07.099l-14.938 7.965-13.349-7.912c3.148-51.643 17.058-80.201 23.172-90.435zm54.584 106.143l-16.455-7.94a1.697 1.697 0 0 0-1.559.042l-14.393 7.915-14.823-7.417a1.694 1.694 0 0 0-1.491-.015l-16.009 7.613-13.457-6.979c.059-1.713.132-3.399.214-5.065l12.656 7.502a1.706 1.706 0 0 0 1.668.038l15.73-8.387 14.755 8.366a1.694 1.694 0 0 0 1.665.008l15.064-8.373 15.422 8.381a1.7 1.7 0 0 0 1.666-.023l13.055-7.579c.135 2.236.193 3.897.217 4.881l-13.925 7.032z" data-color="3" class="icon3"></path></g></g>
</svg>
</g><g opacity="1" transform="rotate(0 217.2645 168.8166)">
<svg width="205.4949" height="120" x="217.2645" y="168.8166" version="1.1" preserveAspectRatio="none" viewBox="1.12 -28.48 118.08 68.96000000000001">
  <g transform="matrix(1 0 0 1 0 0)" class="companyName"><path id="id-D6z1nYkh8" d="M1.12 0L1.12-28L7.60-28L7.60-5.28L21.64-5.28L21.64 0L1.12 0Z M38.36 0.48Q34 0.48 30.50-1.40Q27.00-3.28 25.02-6.58Q23.04-9.88 23.04-14L23.04-14Q23.04-18.12 25.02-21.42Q27.00-24.72 30.50-26.60Q34-28.48 38.36-28.48L38.36-28.48Q42.72-28.48 46.20-26.60Q49.68-24.72 51.68-21.42Q53.68-18.12 53.68-14L53.68-14Q53.68-9.88 51.68-6.58Q49.68-3.28 46.20-1.40Q42.72 0.48 38.36 0.48L38.36 0.48ZM38.36-5.04Q40.84-5.04 42.84-6.18Q44.84-7.32 45.98-9.36Q47.12-11.40 47.12-14L47.12-14Q47.12-16.60 45.98-18.64Q44.84-20.68 42.84-21.82Q40.84-22.96 38.36-22.96L38.36-22.96Q35.88-22.96 33.88-21.82Q31.88-20.68 30.74-18.64Q29.60-16.60 29.60-14L29.60-14Q29.60-11.40 30.74-9.36Q31.88-7.32 33.88-6.18Q35.88-5.04 38.36-5.04L38.36-5.04Z M58.56 0L58.56-28L65.04-28L65.04-5.28L79.08-5.28L79.08 0L58.56 0Z M95.80 0.48Q91.44 0.48 87.94-1.40Q84.44-3.28 82.46-6.58Q80.48-9.88 80.48-14L80.48-14Q80.48-18.12 82.46-21.42Q84.44-24.72 87.94-26.60Q91.44-28.48 95.80-28.48L95.80-28.48Q100.16-28.48 103.64-26.60Q107.12-24.72 109.12-21.42Q111.12-18.12 111.12-14L111.12-14Q111.12-9.88 109.12-6.58Q107.12-3.28 103.64-1.40Q100.16 0.48 95.80 0.48L95.80 0.48ZM95.80-5.04Q98.28-5.04 100.28-6.18Q102.28-7.32 103.42-9.36Q104.56-11.40 104.56-14L104.56-14Q104.56-16.60 103.42-18.64Q102.28-20.68 100.28-21.82Q98.28-22.96 95.80-22.96L95.80-22.96Q93.32-22.96 91.32-21.82Q89.32-20.68 88.18-18.64Q87.04-16.60 87.04-14L87.04-14Q87.04-11.40 88.18-9.36Q89.32-7.32 91.32-6.18Q93.32-5.04 95.80-5.04L95.80-5.04Z M12.52 40.48Q9.20 40.48 6.10 39.58Q3 38.68 1.12 37.24L1.12 37.24L3.32 32.36Q5.12 33.68 7.60 34.48Q10.08 35.28 12.56 35.28L12.56 35.28Q15.32 35.28 16.64 34.46Q17.96 33.64 17.96 32.28L17.96 32.28Q17.96 31.28 17.18 30.62Q16.40 29.96 15.18 29.56Q13.96 29.16 11.88 28.68L11.88 28.68Q8.68 27.92 6.64 27.16Q4.60 26.40 3.14 24.72Q1.68 23.04 1.68 20.24L1.68 20.24Q1.68 17.80 3 15.82Q4.32 13.84 6.98 12.68Q9.64 11.52 13.48 11.52L13.48 11.52Q16.16 11.52 18.72 12.16Q21.28 12.80 23.20 14L23.20 14L21.20 18.92Q17.32 16.72 13.44 16.72L13.44 16.72Q10.72 16.72 9.42 17.60Q8.12 18.48 8.12 19.92L8.12 19.92Q8.12 21.36 9.62 22.06Q11.12 22.76 14.20 23.44L14.20 23.44Q17.40 24.20 19.44 24.96Q21.48 25.72 22.94 27.36Q24.40 29 24.40 31.80L24.40 31.80Q24.40 34.20 23.06 36.18Q21.72 38.16 19.04 39.32Q16.36 40.48 12.52 40.48L12.52 40.48Z M48.04 12L54.52 12L54.52 40L48.04 40L48.04 28.52L35.32 28.52L35.32 40L28.84 40L28.84 12L35.32 12L35.32 23.04L48.04 23.04L48.04 12Z M74.72 40.48Q70.36 40.48 66.86 38.60Q63.36 36.72 61.38 33.42Q59.40 30.12 59.40 26L59.40 26Q59.40 21.88 61.38 18.58Q63.36 15.28 66.86 13.40Q70.36 11.52 74.72 11.52L74.72 11.52Q79.08 11.52 82.56 13.40Q86.04 15.28 88.04 18.58Q90.04 21.88 90.04 26L90.04 26Q90.04 30.12 88.04 33.42Q86.04 36.72 82.56 38.60Q79.08 40.48 74.72 40.48L74.72 40.48ZM74.72 34.96Q77.20 34.96 79.20 33.82Q81.20 32.68 82.34 30.64Q83.48 28.60 83.48 26L83.48 26Q83.48 23.40 82.34 21.36Q81.20 19.32 79.20 18.18Q77.20 17.04 74.72 17.04L74.72 17.04Q72.24 17.04 70.24 18.18Q68.24 19.32 67.10 21.36Q65.96 23.40 65.96 26L65.96 26Q65.96 28.60 67.10 30.64Q68.24 32.68 70.24 33.82Q72.24 34.96 74.72 34.96L74.72 34.96Z M107.04 12Q110.76 12 113.50 13.24Q116.24 14.48 117.72 16.76Q119.20 19.04 119.20 22.16L119.20 22.16Q119.20 25.24 117.72 27.54Q116.24 29.84 113.50 31.06Q110.76 32.28 107.04 32.28L107.04 32.28L101.40 32.28L101.40 40L94.92 40L94.92 12L107.04 12ZM106.68 27Q109.60 27 111.12 25.74Q112.64 24.48 112.64 22.16L112.64 22.16Q112.64 19.80 111.12 18.54Q109.60 17.28 106.68 17.28L106.68 17.28L101.40 17.28L101.40 27L106.68 27Z"/></g>
</svg>
</g></svg></svg>