<svg version="1.1" preserveAspectRatio="none" xmlns="http://www.w3.org/2000/svg" width="500" height="500" viewBox="0 0 500 500"><rect width="100%" height="100%" fill="#1A244D" fill-opacity="1"/><svg viewBox="50 203.929 400 92.1419" width="417" height="96.05793075000001" x="41.5px" y="201.971px" xmlns="http://www.w3.org/2000/svg" xmlns:xlink="http://www.w3.org/1999/xlink" preserveAspectRatio="none"><defs></defs><style>.aB7crM0kCifillColor1172e5de-5220-4531-8800-ebe288bc5be2 {fill:#D4CEC0;fill-opacity:1;}.aIptOCySncolors-01172e5de-5220-4531-8800-ebe288bc5be2 {fill:#FFCC57;fill-opacity:1;}.background1172e5de-5220-4531-8800-ebe288bc5be2 {fill:#1A244D;fill-opacity:1;}.icon1-str1172e5de-5220-4531-8800-ebe288bc5be2 {stroke:#FFCC57;stroke-opacity:1;}.icon21172e5de-5220-4531-8800-ebe288bc5be2 {fill:#3EA0C0;fill-opacity:1;}.icon3-str1172e5de-5220-4531-8800-ebe288bc5be2 {stroke:#0AF9FF;stroke-opacity:0.95;}.icon31172e5de-5220-4531-8800-ebe288bc5be2 {fill:#0AF9FF;fill-opacity:0.95;}</style><g opacity="1" transform="rotate(0 139.3067 203.929)">
<svg width="310.6933" height="92.1419" x="139.3067" y="203.929" version="1.1" preserveAspectRatio="none" viewBox="0 0 310.6933 92.1419">
  <defs><rect x="0" y="0" width="310.6933" height="92.1419" rx="0px" ry="0px" id="id-1172e5de-5220-4531-8800-ebe288bc5be2B7crM0kCi1683452574106"></rect></defs><use class="aB7crM0kCifillColor1172e5de-5220-4531-8800-ebe288bc5be2 icon3-str1172e5de-5220-4531-8800-ebe288bc5be2" style="stroke-width:0;" xlink:href="#id-1172e5de-5220-4531-8800-ebe288bc5be2B7crM0kCi1683452574106"></use>
</svg>
</g><g opacity="1" transform="rotate(0 151.8268 222.8669)">
<svg width="275.2227" height="73.204" x="151.8268" y="222.8669" version="1.1" preserveAspectRatio="none" viewBox="-8.48 -26.88 152.04 40.44">
  <g transform="matrix(1 0 0 1 0 0)" class="background1172e5de-5220-4531-8800-ebe288bc5be2"><path id="id-1172e5de-5220-4531-8800-ebe288bc5be2D6z1nYkh9" d="M7.56-4L7.56-4Q10.44-7.28 15-12.80Q19.56-18.32 21.72-20.64Q23.88-22.96 25.44-24.16L25.44-24.16Q29.08-26.88 32.84-26.88L32.84-26.88Q33.68-26.88 34.74-26.20Q35.80-25.52 35.80-24.08L35.80-24.08Q35.80-22.68 33.12-19.76L33.12-19.76Q31.80-18.32 29.30-16.82Q26.80-15.32 23.72-14.40L23.72-14.40Q22.56-14.20 22.02-14.20Q21.48-14.20 21.48-14.32Q21.48-14.44 21.76-14.60L21.76-14.60Q25.12-16.44 29.30-20.16Q33.48-23.88 33.48-25.04L33.48-25.04Q33.48-25.20 33.26-25.20Q33.04-25.20 32.78-25.12Q32.52-25.04 32.20-24.96Q31.88-24.88 30.84-24.30Q29.80-23.72 28.66-22.86Q27.52-22 25.82-20.22Q24.12-18.44 22.40-16.12L22.40-16.12Q15.80-6.88 13.84-4.76L13.84-4.76Q13.52-4.40 13.04-3.88L13.04-3.88Q14.04-3.76 16.04-3.60Q18.04-3.44 18.74-3.34Q19.44-3.24 20.80-2.92Q22.16-2.60 22.96-2.12L22.96-2.12Q25.04-0.84 26.96 1.36L26.96 1.36Q27.40 1.84 27.40 2Q27.40 2.16 27.28 2.16L27.28 2.16Q27.08 2.16 26.76 2L26.76 2Q26.16 1.84 25.02 1.56Q23.88 1.28 20.12 0.84Q16.36 0.40 13.22 0.40Q10.08 0.40 8.64 0.44L8.64 0.44Q6.52 2.44 2.68 4.16Q-1.16 5.88-3.10 5.88Q-5.04 5.88-6.76 4.86Q-8.48 3.84-8.48 2.12L-8.48 2.12Q-8.48 0.88-6.60-0.60L-6.60-0.60Q-2.28-4 7.56-4ZM-6.28 3.28L-6.28 3.28Q-6.28 3.68-5.32 3.80L-5.32 3.80Q-4.08 3.80-3.20 3.66Q-2.32 3.52-0.62 2.76Q1.08 2 2.96 0.52L2.96 0.52Q0.40 0.52-2.94 1.44Q-6.28 2.36-6.28 3.28Z M26.08-1.76L26.08-1.76Q27.36-1.76 29.24-3.44Q31.12-5.12 31.20-5.76L31.20-5.76Q30.72-6.16 30.18-7.22Q29.64-8.28 29.60-8.28L29.60-8.28Q28.36-7.12 27.40-5.60L27.40-5.60Q25.88-3.04 25.88-2.08L25.88-2.08Q25.88-1.76 26.08-1.76ZM34.72-11.56L34.72-11.56Q34.32-11.56 33.06-10.32Q31.80-9.08 31.80-8.60L31.80-8.60Q31.80-8.48 32.04-8.12Q32.28-7.76 32.40-7.76L32.40-7.76Q33.08-7.76 33.94-9.40Q34.80-11.04 34.80-11.30Q34.80-11.56 34.72-11.56ZM34.80-6.40L34.80-6.40Q35.92-6.40 38.30-7.76Q40.68-9.12 42.48-10.48L42.48-10.48L44.28-11.88Q44.64-11.60 44.64-11.20Q44.64-10.80 44.28-10.48L44.28-10.48Q37.68-4.36 34.28-4.36L34.28-4.36Q34.04-4.36 33.56-4.44L33.56-4.44Q29.04 0.80 25.80 0.80L25.80 0.80Q23.64 0.48 23.08-0.72L23.08-0.72Q22.76-1.32 22.76-2.24L22.76-2.24Q22.76-4.88 25.80-8.54Q28.84-12.20 33.44-13.92L33.44-13.92Q33.84-13.92 34.04-13.74Q34.24-13.56 34.40-13.54Q34.56-13.52 34.82-13.70Q35.08-13.88 35.52-13.90Q35.96-13.92 36.44-13.40L36.44-13.40Q37.08-12.88 37.08-12.12L37.08-12.12Q37.08-9.88 34.80-6.40Z M42.28-2.64L42.28-2.64Q43.60-2.64 47.50-5Q51.40-7.36 54.60-9.72L54.60-9.72L57.84-12.08Q58.20-11.80 58.20-11.40Q58.20-11 57.80-10.64Q57.40-10.28 56.66-9.60Q55.92-8.92 53.84-7.16Q51.76-5.40 49.96-3.96L49.96-3.96Q45.24-0.16 43 0.52L43 0.52Q42.28 0.72 41.52 0.72Q40.76 0.72 40.32 0.60Q39.88 0.48 39.36 0.08L39.36 0.08Q38.32-0.80 38.32-3.84L38.32-3.84Q38.32-4.68 39.04-6.40Q39.76-8.12 41.42-10.56Q43.08-13 45.30-15.44Q47.52-17.88 50.94-20.32Q54.36-22.76 58.24-24.28L58.24-24.28Q58.84-24.48 59.32-24.48Q59.80-24.48 60.20-24.06Q60.60-23.64 60.76-23.20L60.76-23.20L60.96-22.80Q60.96-21.88 58.12-18.76L58.12-18.76Q55.20-15.52 51.38-12.58Q47.56-9.64 44.28-7.56L44.28-7.56Q41.60-5.80 41.60-3.88L41.60-3.88Q41.60-2.64 42.28-2.64ZM45.88-10.92L45.88-10.92Q46.88-10.92 51.94-15.84Q57-20.76 57-21.32L57-21.32L56.96-21.40L56.28-21.08Q54.20-19.72 50.74-16.44Q47.28-13.16 45.96-11.32L45.96-11.32Q45.80-11.12 45.80-11.02Q45.80-10.92 45.88-10.92Z M52.36-1.76L52.36-1.76Q53.64-1.76 55.52-3.44Q57.40-5.12 57.48-5.76L57.48-5.76Q57-6.16 56.46-7.22Q55.92-8.28 55.88-8.28L55.88-8.28Q54.64-7.12 53.68-5.60L53.68-5.60Q52.16-3.04 52.16-2.08L52.16-2.08Q52.16-1.76 52.36-1.76ZM61-11.56L61-11.56Q60.60-11.56 59.34-10.32Q58.08-9.08 58.08-8.60L58.08-8.60Q58.08-8.48 58.32-8.12Q58.56-7.76 58.68-7.76L58.68-7.76Q59.36-7.76 60.22-9.40Q61.08-11.04 61.08-11.30Q61.08-11.56 61-11.56ZM61.08-6.40L61.08-6.40Q62.20-6.40 64.58-7.76Q66.96-9.12 68.76-10.48L68.76-10.48L70.56-11.88Q70.92-11.60 70.92-11.20Q70.92-10.80 70.56-10.48L70.56-10.48Q63.96-4.36 60.56-4.36L60.56-4.36Q60.32-4.36 59.84-4.44L59.84-4.44Q55.32 0.80 52.08 0.80L52.08 0.80Q49.92 0.48 49.36-0.72L49.36-0.72Q49.04-1.32 49.04-2.24L49.04-2.24Q49.04-4.88 52.08-8.54Q55.12-12.20 59.72-13.92L59.72-13.92Q60.12-13.92 60.32-13.74Q60.52-13.56 60.68-13.54Q60.84-13.52 61.10-13.70Q61.36-13.88 61.80-13.90Q62.24-13.92 62.72-13.40L62.72-13.40Q63.36-12.88 63.36-12.12L63.36-12.12Q63.36-9.88 61.08-6.40Z M89.72-9.88L89.72-9.88L85.64-9.72Q81.88-9.72 80.58-9.98Q79.28-10.24 78.26-10.60Q77.24-10.96 76.64-11.44L76.64-11.44Q75.16-12.56 75.16-14.44L75.16-14.44Q75.16-15 75.84-16.12Q76.52-17.24 78.18-18.78Q79.84-20.32 82.14-21.70Q84.44-23.08 88.20-24.12Q91.96-25.16 96.36-25.32L96.36-25.32Q97.92-25.32 99.66-24.94Q101.40-24.56 102.54-24.04Q103.68-23.52 104.56-22.46Q105.44-21.40 105.44-20L105.44-20Q105.44-18.88 103.28-17.60L103.28-17.60Q100.88-16.16 96.94-16.16Q93-16.16 93-16.72L93-16.72Q93-17.16 95.30-17.76Q97.60-18.36 99.92-19.16Q102.24-19.96 102.24-20.96L102.24-20.96Q102.24-21.48 100.48-21.48L100.48-21.48Q88.88-21.48 80.56-15.48L80.56-15.48Q79-14.32 79-13.48L79-13.48Q79-12.16 87.32-12.16L87.32-12.16Q94.80-12.08 94.80-8.16L94.80-8.16Q94.80-5.36 91-2.84Q87.20-0.32 82.06 1.08Q76.92 2.48 72.40 2.52L72.40 2.52Q70.28 2.52 67.92 1.40Q65.56 0.28 65.56-1.32L65.56-1.32Q65.56-1.84 66.44-1.88L66.44-1.88Q71.16-2.40 72.48-3L72.48-3Q72.80-3.08 73-3.08Q73.20-3.08 73.20-3L73.20-3Q73.20-2.84 72.72-2.48L72.72-2.48Q72.28-2.24 71.76-2.04L71.76-2.04Q70.64-1.64 70.64-1.52Q70.64-1.40 71.44-1.40Q72.24-1.40 75.48-2.04Q78.72-2.68 82.42-3.68Q86.12-4.68 88.96-6.16Q91.80-7.64 91.80-9L91.80-9Q91.80-9.88 89.72-9.88Z M105.60-3.52Q105.60-3.32 105.76-3.32Q105.92-3.32 106.40-3.56L106.40-3.56Q112.36-6.76 119.52-12.08L119.52-12.08Q119.88-11.80 119.88-11.40Q119.88-11 119.48-10.64Q119.08-10.28 118.34-9.60Q117.60-8.92 115.52-7.16Q113.44-5.40 111.64-3.96L111.64-3.96Q106.92-0.16 104.68 0.52L104.68 0.52Q103.96 0.72 103.12 0.72L103.12 0.72Q101.76 0.72 101.76-1.40L101.76-1.40Q101.76-2.12 102.64-3.78Q103.52-5.44 103.52-6.20L103.52-6.20Q103.52-6.28 103.40-6.28Q103.28-6.28 102.80-5.92L102.80-5.92Q97.24-1.60 96.04 0.08L96.04 0.08Q95.80 0.44 95.40 0.44L95.40 0.44Q94.52 0.44 94.28-0.40L94.28-0.40Q94.28-1.60 97.66-6.48Q101.04-11.36 105.60-16.74Q110.16-22.12 113.04-24.32L113.04-24.32Q113.88-25.12 116.96-25.12L116.96-25.12Q117.44-25 117.44-24.72Q117.44-24.44 117.16-24.16L117.16-24.16Q105.64-13.04 102.52-8.76L102.52-8.76Q102.36-8.60 102.10-8.18Q101.84-7.76 101.84-7.64L101.84-7.64L101.88-7.60Q102.04-7.60 104.40-9.38Q106.76-11.16 107.92-11.92L107.92-11.92Q108.28-12.28 109.44-12.28L109.44-12.28Q110.44-12.16 110.44-11.64L110.44-11.64Q110.44-11.48 110.36-11.36L110.36-11.36Q107.40-7.16 106.80-6L106.80-6Q105.60-4.12 105.60-3.52L105.60-3.52Z M114.52-1.76L114.52-1.76Q115.80-1.76 117.68-3.44Q119.56-5.12 119.64-5.76L119.64-5.76Q119.16-6.16 118.62-7.22Q118.08-8.28 118.04-8.28L118.04-8.28Q116.80-7.12 115.84-5.60L115.84-5.60Q114.32-3.04 114.32-2.08L114.32-2.08Q114.32-1.76 114.52-1.76ZM123.16-11.56L123.16-11.56Q122.76-11.56 121.50-10.32Q120.24-9.08 120.24-8.60L120.24-8.60Q120.24-8.48 120.48-8.12Q120.72-7.76 120.84-7.76L120.84-7.76Q121.52-7.76 122.38-9.40Q123.24-11.04 123.24-11.30Q123.24-11.56 123.16-11.56ZM123.24-6.40L123.24-6.40Q124.36-6.40 126.74-7.76Q129.12-9.12 130.92-10.48L130.92-10.48L132.72-11.88Q133.08-11.60 133.08-11.20Q133.08-10.80 132.72-10.48L132.72-10.48Q126.12-4.36 122.72-4.36L122.72-4.36Q122.48-4.36 122.00-4.44L122.00-4.44Q117.48 0.80 114.24 0.80L114.24 0.80Q112.08 0.48 111.52-0.72L111.52-0.72Q111.20-1.32 111.20-2.24L111.20-2.24Q111.20-4.88 114.24-8.54Q117.28-12.20 121.88-13.92L121.88-13.92Q122.28-13.92 122.48-13.74Q122.68-13.56 122.84-13.54Q123.00-13.52 123.26-13.70Q123.52-13.88 123.96-13.90Q124.40-13.92 124.88-13.40L124.88-13.40Q125.52-12.88 125.52-12.12L125.52-12.12Q125.52-9.88 123.24-6.40Z M129.68-1.20L129.68-1.20Q131-1.20 133.70-2.74Q136.40-4.28 138.54-6.08Q140.68-7.88 140.68-8.60L140.68-8.60Q140.68-8.72 140.56-8.72L140.56-8.72Q139.68-8.72 136.86-6.94Q134.04-5.16 131.64-3.34Q129.24-1.52 129.24-1.36Q129.24-1.20 129.68-1.20ZM139.84-18.08L139.84-18.08Q140.28-18.08 140.80-17.42Q141.32-16.76 141.32-16.44Q141.32-16.12 141.20-16L141.20-16Q138.44-13.60 135.84-10.96Q133.24-8.32 132-6.88L132-6.88L130.80-5.44Q130.48-5.12 130.48-5Q130.48-4.88 130.56-4.88Q130.64-4.88 130.76-5L130.76-5L131.12-5.28Q137.68-11.12 141.32-11.12L141.32-11.12Q141.80-11.12 142.20-10.84L142.20-10.84Q143.56-9.72 143.56-8.30Q143.56-6.88 141.54-4.68Q139.52-2.48 136.56-0.82Q133.60 0.84 131.62 0.84Q129.64 0.84 129-0.20L129-0.20L128.56-0.84Q128.52-0.88 128.44-0.88L128.44-0.88Q127.56-0.88 122.62 4.72Q117.68 10.32 116.28 12.84L116.28 12.84Q116.12 13.56 115.64 13.56L115.64 13.56Q115.40 13.56 115.20 13.40L115.20 13.40L113.40 12Q113.24 11.92 113.24 11.64L113.24 11.64Q113.24 11.16 119.30 3.78Q125.36-3.60 132-10.84Q138.64-18.08 139.84-18.08Z"/></g>
</svg>
</g><g opacity="1" transform="rotate(0 50 203.929)">
<svg width="92.1418" height="92.1419" x="50" y="203.929" version="1.1" preserveAspectRatio="none" viewBox="0 0 92.1418 92.1419">
  <defs><rect x="1.8428360000000001" y="1.8428360000000001" width="88.456128" height="88.45622800000001" rx="0px" ry="0px" id="id-1172e5de-5220-4531-8800-ebe288bc5be2tBXipXk0b1683452574106"></rect></defs><use class="background1172e5de-5220-4531-8800-ebe288bc5be2 icon1-str1172e5de-5220-4531-8800-ebe288bc5be2" style="stroke-width:3.6856720000000003;" xlink:href="#id-1172e5de-5220-4531-8800-ebe288bc5be2tBXipXk0b1683452574106"></use>
</svg>
</g><g opacity="1" transform="rotate(0 65.9225 211.0169)">
<svg width="60.2968" height="77.9662" x="65.9225" y="211.0169" version="1.1" preserveAspectRatio="none" viewBox="8.96500015258789 4.366703987121582 30.935001373291016 40.00029373168945">
  <g transform="matrix(1 0 0 1 0 0)" class="aIptOCySncolors-01172e5de-5220-4531-8800-ebe288bc5be2"><path d="M39.9,37.33c-2.157-1.76-2.952-26.846-2.952-26.846h-5.28c0.026,0.458,0.045,1.14,0.009,1.742  c-0.618-2.631-1.99-6.874-4.572-7.366c-2.284-0.429-3.967,2.755-5.005,5.624h-3.517c0.776-1.771,2.181-4.276,3.751-4.694  c0.479-0.131,0.961-0.036,1.453,0.271c0.208-0.325,0.501-0.731,0.849-1.074c-0.857-0.578-1.751-0.758-2.658-0.515  c-2.491,0.67-4.207,4.335-4.875,6.012h-1.268c0,0-2.212,0.74-4.198,1.814C11.862,23.592,8.965,39.37,8.965,39.37  s4.658,3.973,5.164,4.487c0.343-0.795,2.274-14.471,2.897-19.241c0.284,4.996-1.191,19.751-1.191,19.751S35.64,38.464,39.9,37.33z   M26.848,6.197c1.205,0.23,2.216,2.148,2.925,4.288h-6.188C24.541,8.032,25.76,5.985,26.848,6.197z"></path></g>
</svg>
</g></svg></svg>