<svg version="1.1" preserveAspectRatio="none" xmlns="http://www.w3.org/2000/svg" width="500" height="500" viewBox="0 0 500 500"><rect width="100%" height="100%" fill="#E74C32" fill-opacity="1"/><svg viewBox="95.4228 179.7235 374.2044 262.2143" width="333" height="233.34135541965833" x="83.5px" y="133.3293px" xmlns="http://www.w3.org/2000/svg" xmlns:xlink="http://www.w3.org/1999/xlink" preserveAspectRatio="none"><defs></defs><style>.companyName {fill:#EFEFEF;fill-opacity:1;}.icon1 {fill:#281817;fill-opacity:1;}.icon2 {fill:#EFEFEF;fill-opacity:1;}.icon3 {fill:#DDAC77;fill-opacity:1;}.icon3-str {stroke:#DDAC77;stroke-opacity:1;}</style><g opacity="1" transform="rotate(0 95.4228 361.9378)">
<svg width="374.2044" height="80" x="95.4228" y="361.9378" version="1.1" preserveAspectRatio="none" viewBox="1 -30.6 183.35999999999999 39.2">
  <g transform="matrix(1 0 0 1 0 0)" class="companyName"><path id="id-D6z1nYkh9" d="M1.28 0L1.08-4.20L3.60-4.88L3.60-20.20Q3.60-21.24 3.46-21.58Q3.32-21.92 2.68-22.20L2.68-22.20L1-23.16L1.12-26.96L13.60-26.96L13.80-22.88L10.84-22.08L10.84-4.80L15.88-4.92L19.28-8.80L22.36-8.64Q22.28-5.28 21.80 0L21.80 0L1.28 0Z M35.04 0.52Q29.96 0.52 27.46-2.08Q24.96-4.68 24.96-10.04L24.96-10.04Q24.96-13.48 26.22-16.04Q27.48-18.60 29.84-19.96Q32.20-21.32 35.40-21.32L35.40-21.32Q45.76-21.32 45.76-10.60L45.76-10.60Q45.76-5.36 42.94-2.42Q40.12 0.52 35.04 0.52L35.04 0.52ZM35.68-4.16Q36.48-4.16 37.08-4.30Q37.68-4.44 38.36-4.76L38.36-4.76Q38.60-5.68 38.76-7.12Q38.92-8.56 38.92-9.88L38.92-9.88Q38.92-13.12 37.90-14.80Q36.88-16.48 34.88-16.48L34.88-16.48Q33.56-16.48 32.20-16.12L32.20-16.12Q31.92-15.52 31.76-14.18Q31.60-12.84 31.60-11.12L31.60-11.12Q31.60-7.76 32.66-5.96Q33.72-4.16 35.68-4.16L35.68-4.16Z M46.88 0L46.76-3.68L49.56-4.52L49.56-23.68Q49.56-24.56 49.42-24.82Q49.28-25.08 48.72-25.40L48.72-25.40L46.96-26.32L47.16-29.36Q47.96-29.52 48.40-29.56L48.40-29.56Q53.68-30.52 55.76-30.60L55.76-30.60Q56.16-29.68 56.28-28.52L56.28-28.52L56.28-5.84Q56.28-5 56.40-4.72Q56.52-4.44 57.08-4.12L57.08-4.12L59.04-3L58.88 0L46.88 0Z M70.32 0.52Q65.24 0.52 62.74-2.08Q60.24-4.68 60.24-10.04L60.24-10.04Q60.24-13.48 61.50-16.04Q62.76-18.60 65.12-19.96Q67.48-21.32 70.68-21.32L70.68-21.32Q81.04-21.32 81.04-10.60L81.04-10.60Q81.04-5.36 78.22-2.42Q75.40 0.52 70.32 0.52L70.32 0.52ZM70.96-4.16Q71.76-4.16 72.36-4.30Q72.96-4.44 73.64-4.76L73.64-4.76Q73.88-5.68 74.04-7.12Q74.20-8.56 74.20-9.88L74.20-9.88Q74.20-13.12 73.18-14.80Q72.16-16.48 70.16-16.48L70.16-16.48Q68.84-16.48 67.48-16.12L67.48-16.12Q67.20-15.52 67.04-14.18Q66.88-12.84 66.88-11.12L66.88-11.12Q66.88-7.76 67.94-5.96Q69-4.16 70.96-4.16L70.96-4.16Z M100.04 0.48Q95.64 0.48 91.12-0.88L91.12-0.88Q91.32-4.84 91.76-8.24L91.76-8.24L94.84-8.84L96.84-5.44Q99.24-4.60 101.08-4.60L101.08-4.60Q101.72-4.60 103.80-4.96L103.80-4.96Q103.88-5.76 103.88-6.04L103.88-6.04Q103.88-7 103.56-7.50Q103.24-8 102.16-8.62Q101.08-9.24 98.28-10.48L98.28-10.48Q94.84-12.16 93.32-14.10Q91.80-16.04 91.80-18.68L91.80-18.68Q91.80-22.80 94.60-25.12Q97.40-27.44 102.28-27.44L102.28-27.44Q104.64-27.44 106.98-26.98Q109.32-26.52 111.08-25.72L111.08-25.72Q111-23.48 110.72-20.16L110.72-20.16L110.60-18.44L107.68-18L104.64-21.88Q103.20-22.32 101.04-22.32L101.04-22.32Q99.68-22.32 99-22.08L99-22.08Q98.80-21.28 98.80-20.84L98.80-20.84Q98.80-19.96 99.24-19.30Q99.68-18.64 100.80-17.94Q101.92-17.24 104.12-16.20L104.12-16.20Q107.32-14.68 108.96-13.52Q110.60-12.36 111.26-11.10Q111.92-9.84 111.92-8.04L111.92-8.04Q111.92-4.08 108.76-1.80Q105.60 0.48 100.04 0.48L100.04 0.48Z M113.68 0L113.48-3.80L115.96-4.52L115.96-23.68Q115.96-24.56 115.84-24.82Q115.72-25.08 115.20-25.40L115.20-25.40L113.44-26.32L113.56-29.36L114.80-29.56Q120.08-30.52 122.20-30.60L122.20-30.60Q122.56-29.64 122.72-28.52L122.72-28.52L122.72-19.40Q124.92-20.40 126.46-20.86Q128-21.32 129.52-21.32L129.52-21.32Q135.76-21.32 135.76-13.72L135.76-13.72L135.76-5.84Q135.76-5 135.88-4.72Q136-4.44 136.56-4.12L136.56-4.12L138.48-3L138.32 0L127.28 0L127.08-3.80L129.04-4.36L129.04-11.96Q129.04-13.72 128.94-14.46Q128.84-15.20 128.28-15.60Q127.72-16 126.40-16L126.40-16Q125.12-16 122.72-15.56L122.72-15.56L122.72-5.84Q122.72-5 122.84-4.72Q122.96-4.44 123.48-4.12L123.48-4.12L125.44-3L125.28 0L113.68 0Z M149.52 0.52Q144.44 0.52 141.94-2.08Q139.44-4.68 139.44-10.04L139.44-10.04Q139.44-13.48 140.70-16.04Q141.96-18.60 144.32-19.96Q146.68-21.32 149.88-21.32L149.88-21.32Q160.24-21.32 160.24-10.60L160.24-10.60Q160.24-5.36 157.42-2.42Q154.60 0.52 149.52 0.52L149.52 0.52ZM150.16-4.16Q150.96-4.16 151.56-4.30Q152.16-4.44 152.84-4.76L152.84-4.76Q153.08-5.68 153.24-7.12Q153.40-8.56 153.40-9.88L153.40-9.88Q153.40-13.12 152.38-14.80Q151.36-16.48 149.36-16.48L149.36-16.48Q148.04-16.48 146.68-16.12L146.68-16.12Q146.40-15.52 146.24-14.18Q146.08-12.84 146.08-11.12L146.08-11.12Q146.08-7.76 147.14-5.96Q148.20-4.16 150.16-4.16L150.16-4.16Z M161.96 8.60L161.76 4.80L164.24 4.12L164.24-14.24Q164.24-15.12 164.12-15.38Q164-15.64 163.44-15.96L163.44-15.96L161.64-16.92L161.84-19.92Q162.04-19.96 162.24-20Q162.44-20.04 162.68-20.08L162.68-20.08Q164.56-20.44 166.66-20.78Q168.76-21.12 170.12-21.20L170.12-21.20Q170.48-20.36 170.60-19.28L170.60-19.28Q171.84-20.28 173.26-20.80Q174.68-21.32 176.08-21.32L176.08-21.32Q180.08-21.32 182.22-18.50Q184.36-15.68 184.36-10.48L184.36-10.48Q184.36-5.08 181.40-2.22Q178.44 0.64 172.84 0.64L172.84 0.64Q172.24 0.64 170.96 0.56L170.96 0.56L170.96 2.76Q170.96 3.64 171.08 3.92Q171.20 4.20 171.76 4.48L171.76 4.48L174.12 5.80L173.96 8.60L161.96 8.60ZM173.88-4.32Q175.76-4.32 176.92-4.84L176.92-4.84Q177.24-5.84 177.46-7.26Q177.68-8.68 177.68-9.92L177.68-9.92Q177.68-13 176.62-14.68Q175.56-16.36 173.68-16.36L173.68-16.36Q172.52-16.36 170.96-15.68L170.96-15.68L170.96-4.80Q172.12-4.32 173.88-4.32L173.88-4.32Z"/></g>
</svg>
</g><g opacity="1" transform="rotate(0 226.3943 179.7235)">
<svg width="112.2614" height="142.2143" x="226.3943" y="179.7235" version="1.1" preserveAspectRatio="none" viewBox="10.53606128692627 1.557997703552246 69.4316177368164 87.95700073242188">
  <g transform="matrix(1 0 0 1 0 0)" class="icon1"><g><path d="M16.159,34.619l-5.607,51.798c-0.084,0.783,0.166,1.574,0.703,2.178c0.531,0.584,1.285,0.92,2.072,0.92h63.848   c0.803,0,1.568-0.348,2.096-0.949c0.535-0.607,0.779-1.412,0.672-2.203l-6.729-51.802c-0.178-1.387-1.367-2.434-2.768-2.434h-3.029   c-0.766-1.836-1.797-3.537-3.043-4.982c-0.615-0.83-1.959-5.846-2.77-8.857l-0.531-1.992c-0.1-0.5,0.32-2.314,0.525-3.203   c0.488-2.107,0.947-4.1,0.391-5.791c-1.193-3.65-4.553-5.744-9.215-5.744c-2.416,0-8.234,0.563-10.129,5.779   c-0.646,1.781-0.002,3.83,0.623,5.811c0.133,0.432,0.383,1.227,0.547,1.85c-4.26-8.164-9.531-12.99-14.57-12.99   c-0.656,0-1.305,0.082-1.934,0.242c-7.379,1.896-10.193,14.215-7.113,29.879h-1.266C17.505,32.127,16.315,33.197,16.159,34.619z    M52.774,7.139c2.184,0,3.5,0.637,3.887,1.805c0.061,0.467-0.322,2.115-0.506,2.908c-0.176,0.76-0.332,1.5-0.459,2.225   c-0.516-0.549-1.244-0.898-2.063-0.898l-4.521,0.055c-0.156-0.588-0.336-1.176-0.52-1.76c-0.166-0.523-0.584-1.854-0.637-2.385   C48.774,7.283,51.833,7.139,52.774,7.139z M28.702,7.658c3.074-0.791,8.9,5.42,12.953,16.252c-0.66,2.232-1.316,4.254-1.723,4.855   c-0.711,1.049-1.305,2.18-1.799,3.361h-9.217l8.082-6.861c1.172-0.992,1.318-2.758,0.322-3.936   c-0.957-1.127-2.797-1.281-3.936-0.32l-8.211,6.973c-0.129-0.898-0.234-1.771-0.316-2.625l9.984-8.479   c0.568-0.48,0.916-1.154,0.979-1.898s-0.17-1.467-0.656-2.039c-0.959-1.129-2.807-1.277-3.932-0.32l-6.553,5.564   C25.03,12.068,26.724,8.166,28.702,7.658z M21.44,37.711h29.398c1.541,0,2.795-1.254,2.795-2.793s-1.254-2.791-2.795-2.791h-6.414   c0.047-0.07,0.078-0.154,0.127-0.225c0.881-1.293,4.109-12.201,4.363-13.086l4.781-0.057c0.799-0.008,1.512-0.357,2.016-0.902   l0.502,1.871c1.609,6.023,2.588,9.508,3.916,11.047c0.363,0.42,0.691,0.877,0.998,1.352h-0.566c-1.537,0-2.791,1.252-2.791,2.791   s1.254,2.793,2.791,2.793h7.432l6.002,46.22H16.437L21.44,37.711z"></path><path d="M28.89,53.534c0.051,6.063,0.928,20.363,16.363,20.363c15.428,0,16.309-14.301,16.359-20.363   c2.309-1.363,3.877-3.852,3.877-6.719c0-4.317-3.51-7.829-7.824-7.829c-4.316,0-7.828,3.512-7.828,7.829   c0,3.744,2.646,6.875,6.166,7.641c-0.264,8.391-2.426,13.859-10.75,13.859c-8.326,0-10.492-5.469-10.754-13.859   c3.52-0.766,6.166-3.896,6.166-7.641c0-4.317-3.51-7.829-7.826-7.829c-4.314,0-7.828,3.512-7.828,7.829   C25.011,49.683,26.581,52.171,28.89,53.534z M55.421,46.815c0-1.238,1.006-2.245,2.244-2.245c1.236,0,2.244,1.007,2.244,2.245   c0,1.234-1.008,2.242-2.244,2.242C56.427,49.058,55.421,48.05,55.421,46.815z M32.839,44.57c1.238,0,2.244,1.007,2.244,2.245   c0,1.234-1.006,2.242-2.244,2.242c-1.236,0-2.242-1.008-2.242-2.242C30.597,45.577,31.603,44.57,32.839,44.57z"></path></g></g>
</svg>
</g></svg></svg>