<svg version="1.1" preserveAspectRatio="none" xmlns="http://www.w3.org/2000/svg" width="500" height="500" viewBox="0 0 500 500"><rect width="100%" height="100%" fill="#C8E3DF" fill-opacity="1"/><svg viewBox="754.0975 641.0219 511.8262 105" width="333" height="68.31420509540153" x="83.5px" y="215.8429px" xmlns="http://www.w3.org/2000/svg" xmlns:xlink="http://www.w3.org/1999/xlink" preserveAspectRatio="none"><defs></defs><style>.companyName {fill:#559092;fill-opacity:1;}.icon1 {fill:#559092;fill-opacity:1;}.icon2 {fill:#FBFBFB;fill-opacity:1;}.icon3 {fill:#185759;fill-opacity:1;}.icon3-str {stroke:#185759;stroke-opacity:1;}</style><g opacity="1" transform="rotate(0 754.0975 641.0219)">
<svg width="96.0007" height="105" x="754.0975" y="641.0219" version="1.1" preserveAspectRatio="none" viewBox="36 29.999996185302734 128.00099182128906 140">
  <g transform="matrix(1 0 0 1 0 0)" ><g><path d="M153.313 81.145c0-1.907-1.539-3.467-3.42-3.467H50.108c-1.881 0-3.42 1.56-3.42 3.467l-8.55 83.22c0 1.907 1.539 3.467 3.42 3.467h116.885c1.881 0 3.42-1.56 3.42-3.467l-8.55-83.22z" data-color="1" class="icon1"></path><path d="M64.392 167.833H41.558c-1.881 0-3.42-1.56-3.42-3.467l8.55-83.22c0-1.907 1.539-3.467 3.42-3.467h14.284c1.881 0 3.42 1.56 3.42 3.467v83.22c0 1.906-1.539 3.467-3.42 3.467z" data-color="2" class="icon2"></path><path d="M119.014 116.109c0 2.713-2.17 4.912-4.845 4.912-2.676 0-4.845-2.2-4.845-4.912 0-2.713 2.17-4.912 4.845-4.912 2.676 0 4.845 2.2 4.845 4.912z" data-color="3" class="icon3"></path><path d="M61.349 72.477c1.181 0 2.138-.97 2.138-2.167 0-19.837 15.918-35.975 35.483-35.975s35.483 16.138 35.483 35.975c0 1.197.957 2.167 2.138 2.167s2.138-.97 2.138-2.167c0-22.227-17.835-40.31-39.758-40.31s-39.76 18.083-39.76 40.31c0 1.197.957 2.167 2.138 2.167z" data-color="4" class="icon1"></path><path d="M163.988 164.141l-8.54-83.122c-.066-3.048-2.533-5.509-5.556-5.509H50.108c-3.023 0-5.49 2.46-5.556 5.509l-8.54 83.122a2.087 2.087 0 0 0-.012.224c0 3.107 2.493 5.635 5.558 5.635h116.885c3.064 0 5.558-2.528 5.558-5.635a2.383 2.383 0 0 0-.013-.224zm-14.191-83.954l-7.356 33.808h-21.608c-.889-2.874-3.54-4.965-6.664-4.965s-5.775 2.091-6.664 4.965H81.369l-11.19-33.808h79.618zm-32.921 35.922c0 1.514-1.214 2.745-2.707 2.745-1.493 0-2.708-1.232-2.708-2.745s1.215-2.745 2.708-2.745c1.493.001 2.707 1.231 2.707 2.745zm-51.202 48.256c0 .705-.587 1.3-1.283 1.3H41.558c-.667 0-1.235-.549-1.28-1.216l8.536-83.08c.008-.075.012-.149.012-.224 0-.705.587-1.3 1.283-1.3h5.29l-3.273 51.439c-.076 1.194.817 2.226 1.996 2.303.047.003.094.004.139.004 1.118 0 2.058-.88 2.132-2.027l3.291-51.719h4.71c.696 0 1.283.595 1.283 1.3v83.22zm92.768 1.301H69.935c0-.421.014-.852.014-1.3V93.115l7.856 23.737a2.14 2.14 0 0 0 2.026 1.478h27.711c.921 2.818 3.541 4.859 6.626 4.859s5.704-2.041 6.625-4.859h23.365a2.144 2.144 0 0 0 2.087-1.701l5.816-26.734 7.66 74.555c-.044.667-.611 1.216-1.279 1.216z" data-color="4" class="icon1"></path><path d="M118.387 126.565h-8.437c-1.181 0-2.138.97-2.138 2.167 0 1.197.957 2.167 2.138 2.167h8.437c1.181 0 2.138-.97 2.138-2.167 0-1.197-.957-2.167-2.138-2.167z" data-color="4" class="icon1"></path></g></g>
</svg>
</g><g opacity="1" transform="rotate(0 880.0982 658.5219)">
<svg width="385.8255" height="70" x="880.0982" y="658.5219" version="1.1" preserveAspectRatio="none" viewBox="2.8 -29.68 206.35999999999999 37.44">
  <g transform="matrix(1 0 0 1 0 0)" class="companyName"><path id="id-D6z1nYkh9" d="M2.80 0L2.80-28L10.72-28L10.72-6.28L24.08-6.28L24.08 0L2.80 0Z M37.64 0.36Q34.16 0.36 31.36-1.08Q28.56-2.52 26.98-5.08Q25.40-7.64 25.40-10.88L25.40-10.88Q25.40-14.08 26.98-16.64Q28.56-19.20 31.34-20.62Q34.12-22.04 37.64-22.04L37.64-22.04Q41.16-22.04 43.96-20.62Q46.76-19.20 48.32-16.66Q49.88-14.12 49.88-10.88L49.88-10.88Q49.88-7.64 48.32-5.08Q46.76-2.52 43.96-1.08Q41.16 0.36 37.64 0.36L37.64 0.36ZM37.64-5.68Q39.64-5.68 40.92-7.06Q42.20-8.44 42.20-10.88L42.20-10.88Q42.20-13.28 40.92-14.64Q39.64-16 37.64-16L37.64-16Q35.64-16 34.36-14.64Q33.08-13.28 33.08-10.88L33.08-10.88Q33.08-8.44 34.36-7.06Q35.64-5.68 37.64-5.68L37.64-5.68Z M53.40 0L53.40-29.68L61.00-29.68L61.00 0L53.40 0Z M76.80 0.36Q73.32 0.36 70.52-1.08Q67.72-2.52 66.14-5.08Q64.56-7.64 64.56-10.88L64.56-10.88Q64.56-14.08 66.14-16.64Q67.72-19.20 70.50-20.62Q73.28-22.04 76.80-22.04L76.80-22.04Q80.32-22.04 83.12-20.62Q85.92-19.20 87.48-16.66Q89.04-14.12 89.04-10.88L89.04-10.88Q89.04-7.64 87.48-5.08Q85.92-2.52 83.12-1.08Q80.32 0.36 76.80 0.36L76.80 0.36ZM76.80-5.68Q78.80-5.68 80.08-7.06Q81.36-8.44 81.36-10.88L81.36-10.88Q81.36-13.28 80.08-14.64Q78.80-16 76.80-16L76.80-16Q74.80-16 73.52-14.64Q72.24-13.28 72.24-10.88L72.24-10.88Q72.24-8.44 73.52-7.06Q74.80-5.68 76.80-5.68L76.80-5.68Z M114.40 0.56Q111 0.56 107.80-0.28Q104.60-1.12 102.60-2.52L102.60-2.52L105.20-8.36Q107.08-7.12 109.56-6.36Q112.04-5.60 114.44-5.60L114.44-5.60Q119-5.60 119-7.88L119-7.88Q119-9.08 117.70-9.66Q116.40-10.24 113.52-10.88L113.52-10.88Q110.36-11.56 108.24-12.34Q106.12-13.12 104.60-14.84Q103.08-16.56 103.08-19.48L103.08-19.48Q103.08-22.04 104.48-24.10Q105.88-26.16 108.66-27.36Q111.44-28.56 115.48-28.56L115.48-28.56Q118.24-28.56 120.92-27.94Q123.60-27.32 125.64-26.12L125.64-26.12L123.20-20.24Q119.20-22.40 115.44-22.40L115.44-22.40Q113.08-22.40 112-21.70Q110.92-21 110.92-19.88L110.92-19.88Q110.92-18.76 112.20-18.20Q113.48-17.64 116.32-17.04L116.32-17.04Q119.52-16.36 121.62-15.58Q123.72-14.80 125.26-13.10Q126.80-11.40 126.80-8.48L126.80-8.48Q126.80-5.96 125.40-3.92Q124-1.88 121.20-0.66Q118.40 0.56 114.40 0.56L114.40 0.56Z M144.20-22.04Q148.24-22.04 150.70-19.64Q153.16-17.24 153.16-12.40L153.16-12.40L153.16 0L145.56 0L145.56-11.16Q145.56-15.60 142-15.60L142-15.60Q140.04-15.60 138.86-14.32Q137.68-13.04 137.68-10.48L137.68-10.48L137.68 0L130.08 0L130.08-29.68L137.68-29.68L137.68-19.68Q138.92-20.84 140.60-21.44Q142.28-22.04 144.20-22.04L144.20-22.04Z M169.12 0.36Q165.64 0.36 162.84-1.08Q160.04-2.52 158.46-5.08Q156.88-7.64 156.88-10.88L156.88-10.88Q156.88-14.08 158.46-16.64Q160.04-19.20 162.82-20.62Q165.60-22.04 169.12-22.04L169.12-22.04Q172.64-22.04 175.44-20.62Q178.24-19.20 179.80-16.66Q181.36-14.12 181.36-10.88L181.36-10.88Q181.36-7.64 179.80-5.08Q178.24-2.52 175.44-1.08Q172.64 0.36 169.12 0.36L169.12 0.36ZM169.12-5.68Q171.12-5.68 172.40-7.06Q173.68-8.44 173.68-10.88L173.68-10.88Q173.68-13.28 172.40-14.64Q171.12-16 169.12-16L169.12-16Q167.12-16 165.84-14.64Q164.56-13.28 164.56-10.88L164.56-10.88Q164.56-8.44 165.84-7.06Q167.12-5.68 169.12-5.68L169.12-5.68Z M198.52-22.04Q201.48-22.04 203.90-20.66Q206.32-19.28 207.74-16.74Q209.16-14.20 209.16-10.84L209.16-10.84Q209.16-7.48 207.74-4.94Q206.32-2.40 203.90-1.02Q201.48 0.36 198.52 0.36L198.52 0.36Q194.72 0.36 192.48-1.92L192.48-1.92L192.48 7.76L184.88 7.76L184.88-21.68L192.12-21.68L192.12-19.52Q194.24-22.04 198.52-22.04L198.52-22.04ZM196.92-5.68Q198.92-5.68 200.20-7.06Q201.48-8.44 201.48-10.84L201.48-10.84Q201.48-13.24 200.20-14.62Q198.92-16 196.92-16L196.92-16Q194.92-16 193.64-14.62Q192.36-13.24 192.36-10.84L192.36-10.84Q192.36-8.44 193.64-7.06Q194.92-5.68 196.92-5.68L196.92-5.68Z"/></g>
</svg>
</g></svg></svg>