<?xml version="1.0" standalone="no"?>
<!DOCTYPE svg PUBLIC "-//W3C//DTD SVG 20010904//EN"
 "http://www.w3.org/TR/2001/REC-SVG-20010904/DTD/svg10.dtd">
<svg version="1.0" xmlns="http://www.w3.org/2000/svg"
 width="100.000000pt" height="100.000000pt" viewBox="0 0 100.000000 100.000000"
 preserveAspectRatio="xMidYMid meet">

<g transform="translate(0.000000,100.000000) scale(0.100000,-0.100000)"
fill="#000000" stroke="none">
<path d="M0 500 l0 -500 500 0 500 0 0 500 0 500 -500 0 -500 0 0 -500z m480
272 c24 -12 38 -27 44 -49 8 -26 16 -33 40 -35 31 -3 31 -4 34 -65 l3 -63 54
0 55 0 0 -95 0 -95 -207 2 -208 3 0 155 0 155 40 5 c36 4 40 8 43 35 3 30 34
65 56 65 6 -1 27 -9 46 -18z m-380 -507 c0 -32 2 -35 30 -35 17 0 30 -5 30
-11 0 -6 -16 -9 -37 -7 -37 3 -38 4 -41 46 -2 25 1 42 7 42 6 0 11 -16 11 -35z
m158 18 c26 -50 -18 -90 -69 -63 -19 11 -24 35 -13 64 9 23 71 21 82 -1z m42
-18 c0 -32 2 -35 30 -35 17 0 30 -5 30 -11 0 -6 -16 -9 -37 -7 -37 3 -38 4
-41 46 -2 25 1 42 7 42 6 0 11 -16 11 -35z m158 2 c4 -34 -13 -57 -42 -57 -29
0 -46 18 -46 50 0 36 8 41 50 38 30 -3 35 -7 38 -31z m117 26 c-37 -5 -58 -23
-28 -23 34 0 53 -11 53 -30 0 -10 -7 -21 -16 -24 -25 -9 -64 -7 -64 4 0 6 16
10 35 10 44 0 46 18 3 22 -25 2 -34 8 -36 26 -3 20 0 22 40 21 34 -2 36 -3 13
-6z m85 -23 c19 0 30 6 33 18 3 9 5 -5 4 -33 0 -27 -2 -40 -4 -27 -6 32 -60
32 -66 0 -2 -13 -4 0 -4 27 -1 28 1 42 4 33 3 -12 14 -18 33 -18z m145 -9 c0
-43 -23 -60 -59 -43 -19 8 -26 19 -26 40 0 38 7 44 50 40 33 -3 35 -5 35 -37z
m109 24 c10 -28 -5 -45 -38 -44 -31 2 -31 2 -3 6 34 5 34 36 -1 41 -21 3 -28
-13 -23 -55 1 -6 -3 -14 -9 -18 -11 -7 -15 67 -3 78 13 13 71 7 77 -8z"/>
<path d="M402 758 c-7 -7 -12 -26 -11 -42 l1 -31 9 30 c5 16 16 36 26 42 14
11 14 13 2 13 -8 0 -20 -5 -27 -12z"/>
<path d="M438 749 c-10 -5 -18 -21 -18 -34 0 -22 5 -25 35 -25 28 0 35 4 35
19 0 47 -18 60 -52 40z"/>
<path d="M502 715 c0 -16 2 -22 5 -12 2 9 2 23 0 30 -3 6 -5 -1 -5 -18z"/>
<path d="M310 670 c0 -5 5 -10 10 -10 6 0 10 5 10 10 0 6 -4 10 -10 10 -5 0
-10 -4 -10 -10z"/>
<path d="M350 530 l0 -150 25 0 c25 0 25 1 25 90 l0 90 48 1 c26 0 66 0 90 -1
l42 -2 0 61 c0 58 -1 61 -25 61 -22 0 -25 -4 -23 -32 2 -24 -1 -33 -12 -33
-11 0 -14 9 -12 33 2 32 2 32 -43 32 -45 0 -45 0 -43 -32 2 -24 -1 -33 -12
-33 -11 0 -14 9 -12 33 2 28 -1 32 -23 32 l-25 0 0 -150z"/>
<path d="M310 525 c0 -69 0 -128 -1 -132 0 -4 4 -9 10 -11 8 -3 11 40 11 132
0 84 -4 136 -10 136 -6 0 -10 -48 -10 -125z"/>
<path d="M420 465 l0 -85 135 0 135 0 0 85 0 85 -135 0 -135 0 0 -85z m110 59
c0 -2 -5 -13 -12 -23 -19 -31 4 -71 41 -71 39 0 55 22 47 64 -4 21 -2 37 5 41
16 11 33 -11 24 -32 -4 -10 -10 -27 -12 -38 -2 -11 -13 -28 -24 -37 -43 -36
-85 -15 -100 50 -5 24 -7 47 -4 52 5 8 35 3 35 -6z"/>
<path d="M197 284 c-4 -4 -7 -18 -7 -31 0 -21 4 -24 28 -21 21 2 27 8 27 28 0
18 -6 26 -20 28 -12 2 -24 0 -28 -4z"/>
<path d="M391 276 c-20 -24 -6 -48 26 -44 22 2 28 8 28 28 0 30 -35 40 -54 16z"/>
<path d="M747 284 c-4 -4 -7 -18 -7 -31 0 -21 4 -24 28 -21 21 2 27 8 27 28 0
18 -6 26 -20 28 -12 2 -24 0 -28 -4z"/>
</g>
</svg>
