<svg version="1.1" preserveAspectRatio="none" xmlns="http://www.w3.org/2000/svg" width="500" height="500" viewBox="0 0 500 500"><rect width="100%" height="100%" fill="#F5F5F5" fill-opacity="1"/><svg viewBox="102.9889 205.5116 365.9041 277.796" width="333" height="252.8150627445825" x="83.5px" y="123.5925px" xmlns="http://www.w3.org/2000/svg" xmlns:xlink="http://www.w3.org/1999/xlink" preserveAspectRatio="none"><defs></defs><style>.companyName {fill:#F7BFB2;fill-opacity:1;}.icon1 {fill:#FDC8BC;fill-opacity:1;}.icon2 {fill:#D2BB7A;fill-opacity:1;}.icon3 {fill:#8F8F8F;fill-opacity:1;}.icon3-str {stroke:#8F8F8F;stroke-opacity:1;}</style><g opacity="1" transform="rotate(0 102.9889 403.3076)">
<svg width="365.9041" height="80" x="102.9889" y="403.3076" version="1.1" preserveAspectRatio="none" viewBox="4 -31.2 179.84 39.32">
  <g transform="matrix(1 0 0 1 0 0)" class="companyName"><path id="id-D6z1nYkh9" d="M4-29.12L8.68-29.12L8.68-4.48L23.04-4.48L23.04 0L4 0L4-29.12Z M26.88-8.64Q26.88-11.16 28.10-13.24Q29.32-15.32 31.48-16.50Q33.64-17.68 36.40-17.68L36.40-17.68Q39.16-17.68 41.30-16.50Q43.44-15.32 44.60-13.26Q45.76-11.20 45.76-8.64L45.76-8.64Q45.76-6.08 44.60-4.02Q43.44-1.96 41.30-0.76Q39.16 0.44 36.36 0.44L36.36 0.44Q33.64 0.44 31.48-0.66Q29.32-1.76 28.10-3.82Q26.88-5.88 26.88-8.64L26.88-8.64ZM31.40-8.60Q31.40-6.32 32.80-4.78Q34.20-3.24 36.28-3.24L36.28-3.24Q38.44-3.24 39.82-4.76Q41.20-6.28 41.20-8.60L41.20-8.60Q41.20-10.92 39.82-12.46Q38.44-14 36.28-14L36.28-14Q34.20-14 32.80-12.42Q31.40-10.84 31.40-8.60L31.40-8.60Z M50.48-31.20L54.96-31.20L54.96 0L50.48 0L50.48-31.20Z M59.72-8.64Q59.72-11.16 60.94-13.24Q62.16-15.32 64.32-16.50Q66.48-17.68 69.24-17.68L69.24-17.68Q72-17.68 74.14-16.50Q76.28-15.32 77.44-13.26Q78.60-11.20 78.60-8.64L78.60-8.64Q78.60-6.08 77.44-4.02Q76.28-1.96 74.14-0.76Q72 0.44 69.20 0.44L69.20 0.44Q66.48 0.44 64.32-0.66Q62.16-1.76 60.94-3.82Q59.72-5.88 59.72-8.64L59.72-8.64ZM64.24-8.60Q64.24-6.32 65.64-4.78Q67.04-3.24 69.12-3.24L69.12-3.24Q71.28-3.24 72.66-4.76Q74.04-6.28 74.04-8.60L74.04-8.60Q74.04-10.92 72.66-12.46Q71.28-14 69.12-14L69.12-14Q67.04-14 65.64-12.42Q64.24-10.84 64.24-8.60L64.24-8.60Z M112.32-23.20Q108.56-25.16 105.64-25.16L105.64-25.16Q103.48-25.16 102.22-24.20Q100.96-23.24 100.96-21.56L100.96-21.56Q100.96-19.92 102.54-18.82Q104.12-17.72 106.96-16.64L106.96-16.64Q109.12-15.88 110.66-14.90Q112.20-13.92 113.20-12.24Q114.20-10.56 114.20-8L114.20-8Q114.20-5.68 113.04-3.80Q111.88-1.92 109.68-0.80Q107.48 0.32 104.48 0.32L104.48 0.32Q101.84 0.32 99.28-0.50Q96.72-1.32 94.72-2.76L94.72-2.76L96.80-6.40Q98.28-5.28 100.30-4.54Q102.32-3.80 104.04-3.80L104.04-3.80Q106.16-3.80 107.76-4.82Q109.36-5.84 109.36-7.96L109.36-7.96Q109.36-9.64 108.02-10.76Q106.68-11.88 104.28-12.80L104.28-12.80Q101.80-13.72 100.16-14.62Q98.52-15.52 97.34-17.14Q96.16-18.76 96.16-21.20L96.16-21.20Q96.16-24.76 98.58-26.94Q101.00-29.12 104.96-29.28L104.96-29.28Q107.84-29.28 110.02-28.62Q112.20-27.96 114.08-26.76L114.08-26.76L112.32-23.20Z M130.44-17.64Q132.80-17.64 134.38-16.22Q135.96-14.80 136-12.56L136-12.56L136 0L131.52 0L131.52-10.96Q131.44-12.28 130.74-13.04Q130.04-13.80 128.64-13.84L128.64-13.84Q126.56-13.84 125.22-12.04Q123.88-10.24 123.88-7.52L123.88-7.52L123.88 0L119.40 0L119.40-31.20L123.80-31.20L123.80-14.04Q124.76-15.68 126.46-16.66Q128.16-17.64 130.44-17.64L130.44-17.64Z M140.76-8.64Q140.76-11.16 141.98-13.24Q143.20-15.32 145.36-16.50Q147.52-17.68 150.28-17.68L150.28-17.68Q153.04-17.68 155.18-16.50Q157.32-15.32 158.48-13.26Q159.64-11.20 159.64-8.64L159.64-8.64Q159.64-6.08 158.48-4.02Q157.32-1.96 155.18-0.76Q153.04 0.44 150.24 0.44L150.24 0.44Q147.52 0.44 145.36-0.66Q143.20-1.76 141.98-3.82Q140.76-5.88 140.76-8.64L140.76-8.64ZM145.28-8.60Q145.28-6.32 146.68-4.78Q148.08-3.24 150.16-3.24L150.16-3.24Q152.32-3.24 153.70-4.76Q155.08-6.28 155.08-8.60L155.08-8.60Q155.08-10.92 153.70-12.46Q152.32-14 150.16-14L150.16-14Q148.08-14 146.68-12.42Q145.28-10.84 145.28-8.60L145.28-8.60Z M175.48-17.68Q177.84-17.68 179.76-16.56Q181.68-15.44 182.76-13.36Q183.84-11.28 183.84-8.52L183.84-8.52Q183.84-5.80 182.66-3.76Q181.48-1.72 179.38-0.64Q177.28 0.44 174.64 0.44L174.64 0.44Q172.96 0.44 171.40-0.24Q169.84-0.92 168.84-2.08L168.84-2.08L168.84 8.12L164.36 8.12L164.36-17.24L168.24-17.24L168.64-14.72Q169.96-16.08 171.70-16.88Q173.44-17.68 175.48-17.68L175.48-17.68ZM173.76-3.12Q175.24-3.12 176.50-3.82Q177.76-4.52 178.52-5.72Q179.28-6.92 179.28-8.44L179.28-8.44Q179.28-10.80 177.78-12.34Q176.28-13.88 174.08-13.88L174.08-13.88Q172.12-13.88 170.78-12.92Q169.44-11.96 168.84-10.24L168.84-10.24L168.84-6.84Q169.24-5.20 170.58-4.16Q171.92-3.12 173.76-3.12L173.76-3.12Z"/></g>
</svg>
</g><g opacity="1" transform="rotate(0 194.4649 205.5116)">
<svg width="182.9521" height="167.796" x="194.4649" y="205.5116" version="1.1" preserveAspectRatio="none" viewBox="2.64959716796875 1.8975830078125 41.24491882324219 37.82813262939453">
  <g transform="matrix(1 0 0 1 0 0)" class="icon1"><title>storeIcon</title><desc>Created with Sketch.</desc><g stroke-width="1" fill-rule="evenodd"><g transform="translate(-329.000000, -536.000000)" stroke-width="3.5"><g transform="translate(331.646953, 537.870000)"><polygon points="4.36057205 0.0275641224 1.06250673 6.6722028 40.185336 6.67220375 36.8872706 0.0275633449"></polygon><path d="M10.3721228,8.56649919 L3.83308852,8.56649919 C1.62449744,8.60335066 -0.165919389,10.4216825 -0.165919389,12.6385161 L-0.165919389,14.762101 C-0.165919389,16.9741624 1.62171582,18.7673925 3.83308852,18.7673925 L10.3721228,18.7673925" transform="translate(5.103102, 13.666946) rotate(-90.000000) translate(-5.103102, -13.666946) "></path><polyline points="3.14273698 19.8405781 3.14273698 37.855696 37.8843605 37.855696 37.8843605 18.9240213"></polyline><polyline points="15.5344557 37.855696 15.5344557 25.1848102 25.7206835 25.1848102 25.7206835 37.7105708"></polyline><path d="M20.6821232,8.56649919 L14.1430889,8.56649919 C11.9344979,8.60335066 10.144081,10.4216825 10.144081,12.6385161 L10.144081,14.762101 C10.144081,16.9741624 11.9317162,18.7673925 14.1430889,18.7673925 L20.6821232,18.7673925" transform="translate(15.413102, 13.666946) rotate(-90.000000) translate(-15.413102, -13.666946) "></path><path d="M31.1061445,8.55455356 L24.5671102,8.55455356 C22.3585191,8.59140502 20.5681023,10.4097368 20.5681023,12.6265705 L20.5681023,14.7501554 C20.5681023,16.9622168 22.3557375,18.7554469 24.5671102,18.7554469 L31.1061445,18.7554469" transform="translate(25.837123, 13.655000) rotate(-90.000000) translate(-25.837123, -13.655000) "></path><path d="M41.4161449,8.55455356 L34.8771106,8.55455356 C32.6685196,8.59140502 30.8781027,10.4097368 30.8781027,12.6265705 L30.8781027,14.7501554 C30.8781027,16.9622168 32.6657379,18.7554469 34.8771106,18.7554469 L41.4161449,18.7554469" transform="translate(36.147124, 13.655000) rotate(-90.000000) translate(-36.147124, -13.655000) "></path></g></g></g></g>
</svg>
</g></svg></svg>