<svg version="1.1" preserveAspectRatio="none" xmlns="http://www.w3.org/2000/svg" width="500" height="500" viewBox="0 0 500 500"><rect width="100%" height="100%" fill="#F5E7E0" fill-opacity="1"/><svg viewBox="59.6195 140.3823 354.6132 258.9136" width="333" height="243.13316255570857" x="83.5px" y="128.4334px" xmlns="http://www.w3.org/2000/svg" xmlns:xlink="http://www.w3.org/1999/xlink" preserveAspectRatio="none"><defs></defs><style>.companyName {fill:#C66358;fill-opacity:1;}.icon1 {fill:#C66358;fill-opacity:1;}.icon2 {fill:#E3BBA7;fill-opacity:1;}.icon3 {fill:#985A55;fill-opacity:1;}.icon3-str {stroke:#985A55;stroke-opacity:1;}</style><g opacity="1" transform="rotate(0 166.0035 140.3823)">
<svg width="141.8453" height="148.9136" x="166.0035" y="140.3823" version="1.1" preserveAspectRatio="none" viewBox="3.8042263984680176 1.5 92.39576721191406 97">
  <g transform="matrix(1 0 0 1 0 0)" class="icon1"><title>Artboard 15</title><g><path d="M42.2,51.5l-4.7,34.3c-0.8,6.1,3.5,11.8,9.6,12.6c0.5,0.1,1,0.1,1.5,0.1H85c6.2,0,11.2-5,11.2-11.2c0-0.5,0-1-0.1-1.5   l-4.7-34.3c-0.2-1.2-1.2-2.1-2.4-2.2H44.7C43.4,49.3,42.4,50.2,42.2,51.5z M86.8,54.3l4.4,32.1c0.5,3.4-1.9,6.5-5.3,7   c-0.3,0-0.6,0.1-0.8,0.1H48.7c-3.4,0-6.2-2.8-6.2-6.2c0-0.3,0-0.6,0.1-0.9l4.4-32.1L86.8,54.3z"></path><path d="M44.6,1.5c-9.3,0-16.9,7.6-16.9,16.9v4.4H14.6c-1.3,0-2.3,0.9-2.5,2.2L3.9,85.8c-0.8,6.1,3.5,11.8,9.6,12.6   c0.5,0.1,1,0.1,1.5,0.1h16.2c1.4,0,2.5-1.1,2.5-2.5s-1.1-2.5-2.5-2.5H15c-3.4,0-6.2-2.8-6.2-6.2c0-0.3,0-0.6,0.1-0.9l8-58.6h55.6   l2,14.7c0.2,1.4,1.5,2.4,2.8,2.2s2.4-1.5,2.2-2.8L77.1,25c-0.2-1.2-1.2-2.2-2.5-2.2H61.5v-4.4C61.5,9.1,54,1.5,44.6,1.5z    M32.7,18.4c0-6.6,5.3-11.9,11.9-11.9c6.6,0,11.9,5.3,11.9,11.9c0,0,0,0,0,0v4.4H32.7V18.4z"></path><path d="M66.8,79.5c7.1,0,12.9-5.8,12.9-12.9v-2c0-1.4-1.1-2.5-2.5-2.5s-2.5,1.1-2.5,2.5v2c0.2,4.4-3.3,8-7.6,8.2   c-4.4,0.2-8-3.3-8.2-7.6c0-0.2,0-0.4,0-0.6v-2c0-1.4-1.1-2.5-2.5-2.5s-2.5,1.1-2.5,2.5v2C53.9,73.7,59.7,79.5,66.8,79.5z"></path><ellipse transform="matrix(0.3353 -0.9421 0.9421 0.3353 -15.2633 56.2456)" cx="32.2" cy="38.9" rx="3.1" ry="3.1"></ellipse><ellipse transform="matrix(0.3353 -0.9421 0.9421 0.3353 1.2336 79.6285)" cx="57.1" cy="38.9" rx="3.1" ry="3.1"></ellipse></g></g>
</svg>
</g><g opacity="1" transform="rotate(0 59.6195 329.2959)">
<svg width="354.6132" height="70" x="59.6195" y="329.2959" version="1.1" preserveAspectRatio="none" viewBox="1.6 -26.8 178.32000000000002 35.2">
  <g transform="matrix(1 0 0 1 0 0)" class="companyName"><path id="id-D6z1nYkh9" d="M19.60-7.60L19.60-7.60L20.40-7.60L20.40 0L1.60 0L1.60-0.80L3.60-0.80L3.60-21.60L1.60-21.60L1.60-22.40L12-22.40L12-21.60L9.60-21.60L9.60-0.80L13.60-0.80Q14.96-0.80 15.86-1Q16.76-1.20 17.72-1.84L17.72-1.84Q19.60-3.08 19.60-7.60Z M29-2.42Q29.88-0.40 32.04-0.40Q34.20-0.40 35.12-2.44Q36.04-4.48 36.04-9.18Q36.04-13.88 35.12-15.94Q34.20-18 32.04-18Q29.88-18 29-15.94Q28.12-13.88 28.12-9.16Q28.12-4.44 29-2.42ZM31.96 0.40Q28.16 0.40 25.08-2.08Q22-4.56 22-9.12L22-9.12Q22-11.56 22.90-13.48Q23.80-15.40 25.30-16.52Q26.80-17.64 28.52-18.22Q30.24-18.80 32.04-18.80Q33.84-18.80 35.58-18.22Q37.32-17.64 38.82-16.52Q40.32-15.40 41.24-13.48Q42.16-11.56 42.16-9.16Q42.16-6.76 41.24-4.88Q40.32-3 38.80-1.88L38.80-1.88Q35.76 0.40 31.96 0.40Z M52.96-26.80L52.96-0.80L54.96-0.80L54.96 0L44.96 0L44.96-0.80L46.96-0.80L46.96-26L44.96-26L44.96-26.80L52.96-26.80Z M64.36-2.42Q65.24-0.40 67.40-0.40Q69.56-0.40 70.48-2.44Q71.40-4.48 71.40-9.18Q71.40-13.88 70.48-15.94Q69.56-18 67.40-18Q65.24-18 64.36-15.94Q63.48-13.88 63.48-9.16Q63.48-4.44 64.36-2.42ZM67.32 0.40Q63.52 0.40 60.44-2.08Q57.36-4.56 57.36-9.12L57.36-9.12Q57.36-11.56 58.26-13.48Q59.16-15.40 60.66-16.52Q62.16-17.64 63.88-18.22Q65.60-18.80 67.40-18.80Q69.20-18.80 70.94-18.22Q72.68-17.64 74.18-16.52Q75.68-15.40 76.60-13.48Q77.52-11.56 77.52-9.16Q77.52-6.76 76.60-4.88Q75.68-3 74.16-1.88L74.16-1.88Q71.12 0.40 67.32 0.40Z M90.52 0L90.52 0L89.72 0L89.72-9.32L90.52-9.32Q90.52-5.56 93.22-2.92Q95.92-0.28 99.80-0.28L99.80-0.28Q101.40-0.28 102.38-1.22Q103.36-2.16 103.36-3.72L103.36-3.72Q103.36-5.48 101.08-6.72L101.08-6.72Q99.84-7.36 96.80-8.74Q93.76-10.12 92.52-11.08L92.52-11.08Q90.04-13 90.34-16.16Q90.64-19.32 92.72-21.06Q94.80-22.80 97.42-22.80Q100.04-22.80 102.14-22.10Q104.24-21.40 104.52-21.40L104.52-21.40Q105.32-21.40 105.32-22.80L105.32-22.80L106.12-22.80L106.12-15.48L105.32-15.48Q105.32-18.36 103.20-20.18Q101.08-22 97.76-22L97.76-22Q96.28-22 95.44-21.14Q94.60-20.28 94.60-19.24Q94.60-18.20 94.88-17.64Q95.16-17.08 95.86-16.62Q96.56-16.16 97.08-15.88Q97.60-15.60 98.74-15.12Q99.88-14.64 100.32-14.44L100.32-14.44Q102.52-13.44 102.92-13.26Q103.32-13.08 104.08-12.68Q104.84-12.28 105.22-11.96Q105.60-11.64 106.20-11.16Q106.80-10.68 107.08-10.18Q107.36-9.68 107.64-9.04L107.64-9.04Q108.20-7.76 108.04-6.04L108.04-6.04Q107.72-2.80 105.62-1.10Q103.52 0.60 99.96 0.60L99.96 0.60Q96.76 0.60 93.60-1.04L93.60-1.04Q92.52-1.60 92-1.60L92-1.60Q90.52-1.60 90.52 0Z M132.24-11.12L132.24-0.80L134.24-0.80L134.24 0L124.24 0L124.24-0.80L126.24-0.80L126.24-12Q126.24-14.84 125.40-16.04Q124.56-17.24 122.88-17.24L122.88-17.24Q120.60-17.24 119.24-14.84L119.24-14.84L119.24-0.80L121.24-0.80L121.24 0L111.24 0L111.24-0.80L113.24-0.80L113.24-26L111.24-26L111.24-26.80L119.24-26.80L119.24-16.32Q120.00-17.40 121.60-18.12Q123.20-18.84 125.12-18.84L125.12-18.84Q132.24-18.84 132.24-11.12L132.24-11.12Z M143.64-2.42Q144.52-0.40 146.68-0.40Q148.84-0.40 149.76-2.44Q150.68-4.48 150.68-9.18Q150.68-13.88 149.76-15.94Q148.84-18 146.68-18Q144.52-18 143.64-15.94Q142.76-13.88 142.76-9.16Q142.76-4.44 143.64-2.42ZM146.60 0.40Q142.80 0.40 139.72-2.08Q136.64-4.56 136.64-9.12L136.64-9.12Q136.64-11.56 137.54-13.48Q138.44-15.40 139.94-16.52Q141.44-17.64 143.16-18.22Q144.88-18.80 146.68-18.80Q148.48-18.80 150.22-18.22Q151.96-17.64 153.46-16.52Q154.96-15.40 155.88-13.48Q156.80-11.56 156.80-9.16Q156.80-6.76 155.88-4.88Q154.96-3 153.44-1.88L153.44-1.88Q150.40 0.40 146.60 0.40Z M166.80-9.64L166.80-9.64L166.80-3.04Q167.88-0.88 169.62-0.88Q171.36-0.88 172.60-2.88Q173.84-4.88 173.84-9.30Q173.84-13.72 172.88-15.50Q171.92-17.28 169.96-17.28Q168-17.28 167.40-15.68Q166.80-14.08 166.80-9.64ZM166.80-18.40L166.80-16.56Q168.16-18.88 171.68-18.88Q175.20-18.88 177.56-16.32Q179.92-13.76 179.92-9.08Q179.92-4.40 177.60-1.76Q175.28 0.88 171.96 0.88L171.96 0.88Q170.32 0.88 168.88 0.20Q167.44-0.48 166.80-1.84L166.80-1.84L166.80 7.60L168.80 7.60L168.80 8.40L160.80 8.40L160.80-17.60L158.80-17.60L158.80-18.40L166.80-18.40Z"/></g>
</svg>
</g></svg></svg>