<svg version="1.1" preserveAspectRatio="none" xmlns="http://www.w3.org/2000/svg" width="500" height="500" viewBox="0 0 500 500"><rect width="100%" height="100%" fill="#1A244D" fill-opacity="1"/><svg viewBox="1110.6717 938.4426 564.3469 130" width="333" height="76.70813820364744" x="83.5px" y="211.6459px" xmlns="http://www.w3.org/2000/svg" xmlns:xlink="http://www.w3.org/1999/xlink" preserveAspectRatio="none"><defs></defs><style>.background {fill:#1A244D;fill-opacity:1;}.icon1 {fill:#FFCC57;fill-opacity:1;}.icon1-str {stroke:#FFCC57;stroke-opacity:1;}.icon2 {fill:#3EA0C0;fill-opacity:1;}.icon3 {fill:#0AF9FF;fill-opacity:0.95;}.icon3-str {stroke:#0AF9FF;stroke-opacity:0.95;}</style><g opacity="1" transform="rotate(0 1236.6715 938.4426)">
<svg width="438.3471" height="130" x="1236.6715" y="938.4426" version="1.1" preserveAspectRatio="none" viewBox="0 0 438.3471 130">
  <defs><rect x="0" y="0" width="438.3471" height="130" rx="0px" ry="0px" id="id-B7crM0kCi1683451737870"></rect></defs><use class="icon1 icon3-str" style="stroke-width:0;" xlink:href="#id-B7crM0kCi1683451737870"></use>
</svg>
</g><g opacity="1" transform="rotate(0 1266.6715 968.4426)">
<svg width="378.3471" height="70" x="1266.6715" y="968.4426" version="1.1" preserveAspectRatio="none" viewBox="3.32 -29.68 202.36 37.44">
  <g transform="matrix(1 0 0 1 0 0)" class="background"><path id="id-D6z1nYkh9" d="M3.32 0L3.32-28L9.80-28L9.80-5.28L23.84-5.28L23.84 0L3.32 0Z M37.12 0.32Q33.72 0.32 31.02-1.10Q28.32-2.52 26.80-5.04Q25.28-7.56 25.28-10.76L25.28-10.76Q25.28-13.96 26.80-16.48Q28.32-19 31.02-20.42Q33.72-21.84 37.12-21.84L37.12-21.84Q40.52-21.84 43.20-20.42Q45.88-19 47.40-16.48Q48.92-13.96 48.92-10.76L48.92-10.76Q48.92-7.56 47.40-5.04Q45.88-2.52 43.20-1.10Q40.52 0.32 37.12 0.32L37.12 0.32ZM37.12-4.80Q39.52-4.80 41.06-6.42Q42.60-8.04 42.60-10.76L42.60-10.76Q42.60-13.48 41.06-15.10Q39.52-16.72 37.12-16.72L37.12-16.72Q34.72-16.72 33.16-15.10Q31.60-13.48 31.60-10.76L31.60-10.76Q31.60-8.04 33.16-6.42Q34.72-4.80 37.12-4.80L37.12-4.80Z M53.08 0L53.08-29.68L59.32-29.68L59.32 0L53.08 0Z M75.36 0.32Q71.96 0.32 69.26-1.10Q66.56-2.52 65.04-5.04Q63.52-7.56 63.52-10.76L63.52-10.76Q63.52-13.96 65.04-16.48Q66.56-19 69.26-20.42Q71.96-21.84 75.36-21.84L75.36-21.84Q78.76-21.84 81.44-20.42Q84.12-19 85.64-16.48Q87.16-13.96 87.16-10.76L87.16-10.76Q87.16-7.56 85.64-5.04Q84.12-2.52 81.44-1.10Q78.76 0.32 75.36 0.32L75.36 0.32ZM75.36-4.80Q77.76-4.80 79.30-6.42Q80.84-8.04 80.84-10.76L80.84-10.76Q80.84-13.48 79.30-15.10Q77.76-16.72 75.36-16.72L75.36-16.72Q72.96-16.72 71.40-15.10Q69.84-13.48 69.84-10.76L69.84-10.76Q69.84-8.04 71.40-6.42Q72.96-4.80 75.36-4.80L75.36-4.80Z M112.28 0.48Q108.96 0.48 105.86-0.42Q102.76-1.32 100.88-2.76L100.88-2.76L103.08-7.64Q104.88-6.32 107.36-5.52Q109.84-4.72 112.32-4.72L112.32-4.72Q115.08-4.72 116.40-5.54Q117.72-6.36 117.72-7.72L117.72-7.72Q117.72-8.72 116.94-9.38Q116.16-10.04 114.94-10.44Q113.72-10.84 111.64-11.32L111.64-11.32Q108.44-12.08 106.40-12.84Q104.36-13.60 102.90-15.28Q101.44-16.96 101.44-19.76L101.44-19.76Q101.44-22.20 102.76-24.18Q104.08-26.16 106.74-27.32Q109.40-28.48 113.24-28.48L113.24-28.48Q115.92-28.48 118.48-27.84Q121.04-27.20 122.96-26L122.96-26L120.96-21.08Q117.08-23.28 113.20-23.28L113.20-23.28Q110.48-23.28 109.18-22.40Q107.88-21.52 107.88-20.08L107.88-20.08Q107.88-18.64 109.38-17.94Q110.88-17.24 113.96-16.56L113.96-16.56Q117.16-15.80 119.20-15.04Q121.24-14.28 122.70-12.64Q124.16-11 124.16-8.20L124.16-8.20Q124.16-5.80 122.82-3.82Q121.48-1.84 118.80-0.68Q116.12 0.48 112.28 0.48L112.28 0.48Z M141.24-21.84Q145.24-21.84 147.70-19.44Q150.16-17.04 150.16-12.32L150.16-12.32L150.16 0L143.92 0L143.92-11.36Q143.92-13.92 142.80-15.18Q141.68-16.44 139.56-16.44L139.56-16.44Q137.20-16.44 135.80-14.98Q134.40-13.52 134.40-10.64L134.40-10.64L134.40 0L128.16 0L128.16-29.68L134.40-29.68L134.40-19.28Q135.64-20.52 137.40-21.18Q139.16-21.84 141.24-21.84L141.24-21.84Z M166.28 0.32Q162.88 0.32 160.18-1.10Q157.48-2.52 155.96-5.04Q154.44-7.56 154.44-10.76L154.44-10.76Q154.44-13.96 155.96-16.48Q157.48-19 160.18-20.42Q162.88-21.84 166.28-21.84L166.28-21.84Q169.68-21.84 172.36-20.42Q175.04-19 176.56-16.48Q178.08-13.96 178.08-10.76L178.08-10.76Q178.08-7.56 176.56-5.04Q175.04-2.52 172.36-1.10Q169.68 0.32 166.28 0.32L166.28 0.32ZM166.28-4.80Q168.68-4.80 170.22-6.42Q171.76-8.04 171.76-10.76L171.76-10.76Q171.76-13.48 170.22-15.10Q168.68-16.72 166.28-16.72L166.28-16.72Q163.88-16.72 162.32-15.10Q160.76-13.48 160.76-10.76L160.76-10.76Q160.76-8.04 162.32-6.42Q163.88-4.80 166.28-4.80L166.28-4.80Z M194.96-21.84Q197.96-21.84 200.42-20.46Q202.88-19.08 204.28-16.58Q205.68-14.08 205.68-10.76L205.68-10.76Q205.68-7.44 204.28-4.94Q202.88-2.44 200.42-1.06Q197.96 0.32 194.96 0.32L194.96 0.32Q190.84 0.32 188.48-2.28L188.48-2.28L188.48 7.76L182.24 7.76L182.24-21.52L188.20-21.52L188.20-19.04Q190.52-21.84 194.96-21.84L194.96-21.84ZM193.88-4.80Q196.28-4.80 197.82-6.42Q199.36-8.04 199.36-10.76L199.36-10.76Q199.36-13.48 197.82-15.10Q196.28-16.72 193.88-16.72L193.88-16.72Q191.48-16.72 189.94-15.10Q188.40-13.48 188.40-10.76L188.40-10.76Q188.40-8.04 189.94-6.42Q191.48-4.80 193.88-4.80L193.88-4.80Z"/></g>
</svg>
</g><g opacity="1" transform="rotate(0 1110.6717 938.4426)">
<svg width="129.9998" height="130" x="1110.6717" y="938.4426" version="1.1" preserveAspectRatio="none" viewBox="0 0 129.9998 130">
  <defs><rect x="2.599996" y="2.599996" width="124.799808" height="124.800008" rx="0px" ry="0px" id="id-tBXipXk0b1683451737870"></rect></defs><use class="background icon1-str" style="stroke-width:5.199992;" xlink:href="#id-tBXipXk0b1683451737870"></use>
</svg>
</g><g opacity="1" transform="rotate(0 1133.1362 948.4426)">
<svg width="85.0708" height="110" x="1133.1362" y="948.4426" version="1.1" preserveAspectRatio="none" viewBox="8.96500015258789 4.366703987121582 30.935001373291016 40.00029373168945">
  <g transform="matrix(1 0 0 1 0 0)" class="icon1"><path d="M39.9,37.33c-2.157-1.76-2.952-26.846-2.952-26.846h-5.28c0.026,0.458,0.045,1.14,0.009,1.742  c-0.618-2.631-1.99-6.874-4.572-7.366c-2.284-0.429-3.967,2.755-5.005,5.624h-3.517c0.776-1.771,2.181-4.276,3.751-4.694  c0.479-0.131,0.961-0.036,1.453,0.271c0.208-0.325,0.501-0.731,0.849-1.074c-0.857-0.578-1.751-0.758-2.658-0.515  c-2.491,0.67-4.207,4.335-4.875,6.012h-1.268c0,0-2.212,0.74-4.198,1.814C11.862,23.592,8.965,39.37,8.965,39.37  s4.658,3.973,5.164,4.487c0.343-0.795,2.274-14.471,2.897-19.241c0.284,4.996-1.191,19.751-1.191,19.751S35.64,38.464,39.9,37.33z   M26.848,6.197c1.205,0.23,2.216,2.148,2.925,4.288h-6.188C24.541,8.032,25.76,5.985,26.848,6.197z"></path></g>
</svg>
</g></svg></svg>